<svg width="15" height="12" viewBox="0 0 15 12" fill="none" xmlns="http://www.w3.org/2000/svg">
<path d="M0 5.55315C0 5.82801 0.128146 6.09162 0.356247 6.28597C0.584349 6.48033 0.893719 6.58952 1.2163 6.58952H10.8494L7.6546 9.31171C7.43975 9.50817 7.32279 9.76802 7.32835 10.0365C7.33391 10.305 7.46156 10.5612 7.6844 10.751C7.90725 10.9409 8.2079 11.0497 8.523 11.0544C8.83811 11.0592 9.14307 10.9595 9.37364 10.7764L14.6443 6.28552C14.8721 6.0912 15 5.82779 15 5.55315C15 5.27851 14.8721 5.0151 14.6443 4.82078L9.37364 0.329853C9.26229 0.228031 9.12801 0.146362 8.97881 0.0897182C8.82961 0.0330745 8.66855 0.00261649 8.50524 0.000161289C8.34192 -0.00229392 8.1797 0.0233037 8.02825 0.0754275C7.8768 0.127551 7.73922 0.205133 7.62372 0.303545C7.50823 0.401957 7.41717 0.519183 7.356 0.648229C7.29483 0.777275 7.26479 0.915497 7.26767 1.05465C7.27055 1.1938 7.30629 1.33104 7.37277 1.45817C7.43925 1.58529 7.5351 1.69971 7.6546 1.79459L10.8494 4.51678H1.2163C0.544904 4.51678 0 4.98107 0 5.55315Z" fill="white"/>
</svg>
