<svg width="9" height="20" viewBox="0 0 9 20" fill="none" xmlns="http://www.w3.org/2000/svg">
<path d="M0.344159 18.7957C0.123794 18.5248 0 18.1573 0 17.7742C0 17.3911 0.123794 17.0236 0.344159 16.7527L6.16269 9.60065L0.344159 2.44861C0.130039 2.17611 0.0115595 1.81114 0.0142374 1.4323C0.0169153 1.05346 0.140537 0.691074 0.358478 0.423187C0.576417 0.155298 0.871238 0.0033474 1.17944 5.53131e-05C1.48764 -0.00323677 1.78456 0.142397 2.00626 0.405588L8.65584 8.57914C8.87621 8.85009 9 9.21753 9 9.60065C9 9.98378 8.87621 10.3512 8.65584 10.6222L2.00626 18.7957C1.78583 19.0666 1.4869 19.2188 1.17521 19.2188C0.863519 19.2188 0.56459 19.0666 0.344159 18.7957Z" fill="black"/>
</svg>
