<svg width="138" height="138" viewBox="0 0 138 138" fill="none" xmlns="http://www.w3.org/2000/svg">
<path d="M69 0C71.3869 0 73.6761 0.94821 75.364 2.63604C77.0518 4.32386 78 6.61305 78 9V60H129C131.387 60 133.676 60.9482 135.364 62.636C137.052 64.3239 138 66.6131 138 69C138 71.3869 137.052 73.6761 135.364 75.364C133.676 77.0518 131.387 78 129 78H78V129C78 131.387 77.0518 133.676 75.364 135.364C73.6761 137.052 71.3869 138 69 138C66.6131 138 64.3239 137.052 62.636 135.364C60.9482 133.676 60 131.387 60 129V78H9C6.61305 78 4.32386 77.0518 2.63604 75.364C0.94821 73.6761 0 71.3869 0 69C0 66.6131 0.94821 64.3239 2.63604 62.636C4.32386 60.9482 6.61305 60 9 60H60V9C60 6.61305 60.9482 4.32386 62.636 2.63604C64.3239 0.94821 66.6131 0 69 0Z" fill="#D5D5D5"/>
</svg>
