<svg width="209" height="209" viewBox="0 0 209 209" fill="none" xmlns="http://www.w3.org/2000/svg">
<path d="M23.2222 209C16.8361 209 11.3711 206.728 6.82733 202.184C2.28352 197.64 0.00774074 192.172 0 185.778V23.2222C0 16.8361 2.27578 11.3711 6.82733 6.82733C11.3789 2.28352 16.8438 0.00774074 23.2222 0H185.778C192.164 0 197.633 2.27578 202.184 6.82733C206.736 11.3789 209.008 16.8438 209 23.2222V185.778C209 192.164 206.728 197.633 202.184 202.184C197.64 206.736 192.172 209.008 185.778 209H23.2222ZM34.8333 162.556H174.167L130.625 104.5L95.7917 150.944L69.6667 116.111L34.8333 162.556Z" fill="#D5D5D5"/>
</svg>
