<svg width="333" height="213" viewBox="0 0 333 213" fill="none" xmlns="http://www.w3.org/2000/svg">
<path d="M271.503 74.5749C271.503 74.5067 271.982 74.4509 272.572 74.4509C272.687 74.4534 272.8 74.4554 272.932 74.4583L272.815 74.5749C272.833 74.1604 272.878 73.8655 272.932 73.8655C272.986 73.8655 273.032 74.1604 273.049 74.5749L273.053 74.6895L272.932 74.692C272.799 74.6945 272.687 74.697 272.572 74.6989C271.982 74.6989 271.503 74.6432 271.503 74.5749Z" fill="#E0E0E0"/>
<path d="M268.646 74.5752C268.646 74.5069 268.966 74.4511 269.36 74.4511C269.755 74.4511 270.075 74.5064 270.075 74.5752C270.075 74.6439 269.755 74.6992 269.36 74.6992C268.966 74.6992 268.646 74.6434 268.646 74.5752Z" fill="#E0E0E0"/>
<path d="M265.789 74.5752C265.789 74.5069 266.109 74.4511 266.503 74.4511C266.898 74.4511 267.217 74.5064 267.217 74.5752C267.217 74.6439 266.898 74.6992 266.503 74.6992C266.109 74.6992 265.789 74.6434 265.789 74.5752Z" fill="#E0E0E0"/>
<path d="M262.931 74.5752C262.931 74.5069 263.251 74.4511 263.646 74.4511C264.04 74.4511 264.36 74.5064 264.36 74.5752C264.36 74.6439 264.04 74.6992 263.646 74.6992C263.251 74.6992 262.931 74.6434 262.931 74.5752Z" fill="#E0E0E0"/>
<path d="M260.074 74.5752C260.074 74.5069 260.394 74.4511 260.789 74.4511C261.183 74.4511 261.503 74.5064 261.503 74.5752C261.503 74.6439 261.183 74.6992 260.789 74.6992C260.394 74.6992 260.074 74.6434 260.074 74.5752Z" fill="#E0E0E0"/>
<path d="M257.217 74.5752C257.217 74.5069 257.537 74.4511 257.931 74.4511C258.326 74.4511 258.646 74.5064 258.646 74.5752C258.646 74.6439 258.326 74.6992 257.931 74.6992C257.537 74.6992 257.217 74.6434 257.217 74.5752Z" fill="#E0E0E0"/>
<path d="M254.36 74.5752C254.36 74.5069 254.68 74.4511 255.074 74.4511C255.469 74.4511 255.789 74.5064 255.789 74.5752C255.789 74.6439 255.469 74.6992 255.074 74.6992C254.68 74.6992 254.36 74.6434 254.36 74.5752Z" fill="#E0E0E0"/>
<path d="M251.503 74.5752C251.503 74.5069 251.823 74.4511 252.217 74.4511C252.612 74.4511 252.932 74.5064 252.932 74.5752C252.932 74.6439 252.612 74.6992 252.217 74.6992C251.823 74.6992 251.503 74.6434 251.503 74.5752Z" fill="#E0E0E0"/>
<path d="M248.646 74.5752C248.646 74.5069 248.966 74.4511 249.36 74.4511C249.755 74.4511 250.075 74.5064 250.075 74.5752C250.075 74.6439 249.755 74.6992 249.36 74.6992C248.966 74.6992 248.646 74.6434 248.646 74.5752Z" fill="#E0E0E0"/>
<path d="M245.787 74.5752C245.787 74.5069 246.107 74.4511 246.502 74.4511C246.896 74.4511 247.216 74.5064 247.216 74.5752C247.216 74.6439 246.896 74.6992 246.502 74.6992C246.108 74.6992 245.787 74.6434 245.787 74.5752Z" fill="#E0E0E0"/>
<path d="M242.931 74.5752C242.931 74.5069 243.251 74.4511 243.645 74.4511C244.04 74.4511 244.36 74.5064 244.36 74.5752C244.36 74.6439 244.04 74.6992 243.645 74.6992C243.251 74.6992 242.931 74.6434 242.931 74.5752Z" fill="#E0E0E0"/>
<path d="M240.074 74.5752C240.074 74.5069 240.394 74.4511 240.789 74.4511C241.183 74.4511 241.503 74.5064 241.503 74.5752C241.503 74.6439 241.183 74.6992 240.789 74.6992C240.394 74.6992 240.074 74.6434 240.074 74.5752Z" fill="#E0E0E0"/>
<path d="M237.216 74.5752C237.216 74.5069 237.536 74.4511 237.931 74.4511C238.325 74.4511 238.645 74.5064 238.645 74.5752C238.645 74.6439 238.325 74.6992 237.931 74.6992C237.536 74.6992 237.216 74.6434 237.216 74.5752Z" fill="#E0E0E0"/>
<path d="M234.359 74.5752C234.359 74.5069 234.679 74.4511 235.074 74.4511C235.468 74.4511 235.788 74.5064 235.788 74.5752C235.788 74.6439 235.468 74.6992 235.074 74.6992C234.679 74.6992 234.359 74.6434 234.359 74.5752Z" fill="#E0E0E0"/>
<path d="M231.502 74.5752C231.502 74.5069 231.822 74.4511 232.217 74.4511C232.611 74.4511 232.931 74.5064 232.931 74.5752C232.931 74.6439 232.611 74.6992 232.217 74.6992C231.821 74.6992 231.502 74.6434 231.502 74.5752Z" fill="#E0E0E0"/>
<path d="M228.645 74.5752C228.645 74.5069 228.965 74.4511 229.36 74.4511C229.754 74.4511 230.074 74.5064 230.074 74.5752C230.074 74.6439 229.754 74.6992 229.36 74.6992C228.965 74.6992 228.645 74.6434 228.645 74.5752Z" fill="#E0E0E0"/>
<path d="M225.787 74.5752C225.787 74.5069 226.107 74.4511 226.502 74.4511C226.896 74.4511 227.216 74.5064 227.216 74.5752C227.216 74.6439 226.896 74.6992 226.502 74.6992C226.107 74.6992 225.787 74.6434 225.787 74.5752Z" fill="#E0E0E0"/>
<path d="M222.931 74.5752C222.931 74.5069 223.251 74.4511 223.645 74.4511C224.04 74.4511 224.36 74.5064 224.36 74.5752C224.36 74.6439 224.04 74.6992 223.645 74.6992C223.251 74.6992 222.931 74.6434 222.931 74.5752Z" fill="#E0E0E0"/>
<path d="M222.039 72.6091C222.107 72.6091 222.163 72.9289 222.163 73.3234C222.163 73.718 222.107 74.0378 222.039 74.0378C221.971 74.0378 221.915 73.718 221.915 73.3234C221.915 72.9289 221.97 72.6091 222.039 72.6091Z" fill="#E0E0E0"/>
<path d="M222.039 69.7528C222.108 69.7528 222.163 70.0726 222.163 70.4672C222.163 70.8617 222.108 71.1815 222.039 71.1815C221.971 71.1815 221.915 70.8617 221.915 70.4672C221.915 70.0726 221.971 69.7528 222.039 69.7528Z" fill="#E0E0E0"/>
<path d="M222.039 66.8953C222.108 66.8953 222.163 67.2151 222.163 67.6096C222.163 68.0041 222.108 68.324 222.039 68.324C221.971 68.324 221.915 68.0041 221.915 67.6096C221.915 67.2151 221.971 66.8953 222.039 66.8953Z" fill="#E0E0E0"/>
<path d="M222.039 64.037C222.108 64.037 222.163 64.3568 222.163 64.7513C222.163 65.1459 222.108 65.4657 222.039 65.4657C221.971 65.4657 221.915 65.1459 221.915 64.7513C221.915 64.3568 221.971 64.037 222.039 64.037Z" fill="#E0E0E0"/>
<path d="M222.039 61.1798C222.107 61.1798 222.163 61.4996 222.163 61.8941C222.163 62.2887 222.107 62.6085 222.039 62.6085C221.971 62.6085 221.915 62.2887 221.915 61.8941C221.915 61.4996 221.97 61.1798 222.039 61.1798Z" fill="#E0E0E0"/>
<path d="M222.039 58.323C222.107 58.323 222.163 58.6428 222.163 59.0374C222.163 59.4319 222.107 59.7517 222.039 59.7517C221.971 59.7517 221.915 59.4319 221.915 59.0374C221.915 58.6428 221.97 58.323 222.039 58.323Z" fill="#E0E0E0"/>
<path d="M222.039 55.4669C222.108 55.4669 222.163 55.7867 222.163 56.1813C222.163 56.5758 222.108 56.8956 222.039 56.8956C221.971 56.8956 221.915 56.5758 221.915 56.1813C221.915 55.7867 221.971 55.4669 222.039 55.4669Z" fill="#E0E0E0"/>
<path d="M222.039 52.6093C222.108 52.6093 222.163 52.9292 222.163 53.3237C222.163 53.7182 222.108 54.038 222.039 54.038C221.971 54.038 221.915 53.7182 221.915 53.3237C221.915 52.9292 221.971 52.6093 222.039 52.6093Z" fill="#E0E0E0"/>
<path d="M222.039 49.7498C222.108 49.7498 222.163 50.0696 222.163 50.4642C222.163 50.8587 222.108 51.1785 222.039 51.1785C221.971 51.1785 221.915 50.8587 221.915 50.4642C221.915 50.0696 221.971 49.7498 222.039 49.7498Z" fill="#E0E0E0"/>
<path d="M222.039 46.8937C222.107 46.8937 222.163 47.2135 222.163 47.6081C222.163 48.0026 222.107 48.3224 222.039 48.3224C221.971 48.3224 221.915 48.0026 221.915 47.6081C221.915 47.2135 221.97 46.8937 222.039 46.8937Z" fill="#E0E0E0"/>
<path d="M222.039 44.0369C222.107 44.0369 222.163 44.3568 222.163 44.7513C222.163 45.1458 222.107 45.4656 222.039 45.4656C221.971 45.4656 221.915 45.1458 221.915 44.7513C221.915 44.3568 221.97 44.0369 222.039 44.0369Z" fill="#E0E0E0"/>
<path d="M222.039 41.181C222.108 41.181 222.163 41.5008 222.163 41.8953C222.163 42.2899 222.108 42.6097 222.039 42.6097C221.971 42.6097 221.915 42.2899 221.915 41.8953C221.915 41.5008 221.971 41.181 222.039 41.181Z" fill="#E0E0E0"/>
<path d="M222.039 38.3215C222.108 38.3215 222.163 38.6413 222.163 39.0358C222.163 39.4304 222.108 39.7502 222.039 39.7502C221.971 39.7502 221.915 39.4304 221.915 39.0358C221.915 38.6413 221.971 38.3215 222.039 38.3215Z" fill="#E0E0E0"/>
<path d="M222.039 35.4655C222.107 35.4655 222.163 35.7853 222.163 36.1799C222.163 36.5744 222.107 36.8942 222.039 36.8942C221.971 36.8942 221.915 36.5744 221.915 36.1799C221.915 35.7853 221.97 35.4655 222.039 35.4655Z" fill="#E0E0E0"/>
<path d="M222.039 32.6076C222.107 32.6076 222.163 32.9275 222.163 33.322C222.163 33.7165 222.107 34.0364 222.039 34.0364C221.971 34.0364 221.915 33.7165 221.915 33.322C221.915 32.9275 221.97 32.6076 222.039 32.6076Z" fill="#E0E0E0"/>
<path d="M222.039 29.7509C222.107 29.7509 222.163 30.0707 222.163 30.4652C222.163 30.8598 222.107 31.1796 222.039 31.1796C221.971 31.1796 221.915 30.8598 221.915 30.4652C221.915 30.0707 221.97 29.7509 222.039 29.7509Z" fill="#E0E0E0"/>
<path d="M222.039 26.8938C222.108 26.8938 222.163 27.2136 222.163 27.6081C222.163 28.0027 222.108 28.3225 222.039 28.3225C221.971 28.3225 221.915 28.0027 221.915 27.6081C221.915 27.2136 221.971 26.8938 222.039 26.8938Z" fill="#E0E0E0"/>
<path d="M222.039 24.0356C222.108 24.0356 222.163 24.3554 222.163 24.7499C222.163 25.1444 222.108 25.4643 222.039 25.4643C221.971 25.4643 221.915 25.1444 221.915 24.7499C221.915 24.3554 221.971 24.0356 222.039 24.0356Z" fill="#E0E0E0"/>
<path d="M224.541 23.6813C224.541 23.7495 224.222 23.8053 223.827 23.8053C223.433 23.8053 223.113 23.75 223.113 23.6813C223.113 23.613 223.433 23.5572 223.827 23.5572C224.222 23.5572 224.541 23.613 224.541 23.6813Z" fill="#E0E0E0"/>
<path d="M227.399 23.6813C227.399 23.7495 227.079 23.8053 226.684 23.8053C226.29 23.8053 225.97 23.75 225.97 23.6813C225.97 23.613 226.29 23.5572 226.684 23.5572C227.079 23.5572 227.399 23.613 227.399 23.6813Z" fill="#E0E0E0"/>
<path d="M230.256 23.6813C230.256 23.7495 229.936 23.8053 229.542 23.8053C229.147 23.8053 228.827 23.75 228.827 23.6813C228.827 23.613 229.147 23.5572 229.542 23.5572C229.936 23.5572 230.256 23.613 230.256 23.6813Z" fill="#E0E0E0"/>
<path d="M232.398 23.8053C232.793 23.8053 233.113 23.7498 233.113 23.6813C233.113 23.6127 232.793 23.5572 232.398 23.5572C232.004 23.5572 231.684 23.6127 231.684 23.6813C231.684 23.7498 232.004 23.8053 232.398 23.8053Z" fill="#E0E0E0"/>
<path d="M235.971 23.6813C235.971 23.7495 235.651 23.8053 235.256 23.8053C234.862 23.8053 234.542 23.75 234.542 23.6813C234.542 23.613 234.862 23.5572 235.256 23.5572C235.651 23.5572 235.971 23.613 235.971 23.6813Z" fill="#E0E0E0"/>
<path d="M238.827 23.6813C238.827 23.7495 238.508 23.8053 238.113 23.8053C237.719 23.8053 237.399 23.75 237.399 23.6813C237.399 23.613 237.719 23.5572 238.113 23.5572C238.508 23.5572 238.827 23.613 238.827 23.6813Z" fill="#E0E0E0"/>
<path d="M241.685 23.6813C241.685 23.7495 241.365 23.8053 240.97 23.8053C240.576 23.8053 240.256 23.75 240.256 23.6813C240.256 23.613 240.576 23.5572 240.97 23.5572C241.365 23.5572 241.685 23.613 241.685 23.6813Z" fill="#E0E0E0"/>
<path d="M244.542 23.6813C244.542 23.7495 244.222 23.8053 243.828 23.8053C243.433 23.8053 243.113 23.75 243.113 23.6813C243.113 23.613 243.433 23.5572 243.828 23.5572C244.222 23.5572 244.542 23.613 244.542 23.6813Z" fill="#E0E0E0"/>
<path d="M247.399 23.6813C247.399 23.7495 247.08 23.8053 246.685 23.8053C246.29 23.8053 245.971 23.75 245.971 23.6813C245.971 23.613 246.29 23.5572 246.685 23.5572C247.08 23.5572 247.399 23.613 247.399 23.6813Z" fill="#E0E0E0"/>
<path d="M250.257 23.6813C250.257 23.7495 249.937 23.8053 249.542 23.8053C249.148 23.8053 248.828 23.75 248.828 23.6813C248.828 23.613 249.148 23.5572 249.542 23.5572C249.937 23.5572 250.257 23.613 250.257 23.6813Z" fill="#E0E0E0"/>
<path d="M253.113 23.6813C253.113 23.7495 252.794 23.8053 252.399 23.8053C252.005 23.8053 251.685 23.75 251.685 23.6813C251.685 23.613 252.005 23.5572 252.399 23.5572C252.794 23.5572 253.113 23.613 253.113 23.6813Z" fill="#E0E0E0"/>
<path d="M255.971 23.6813C255.971 23.7495 255.651 23.8053 255.256 23.8053C254.862 23.8053 254.542 23.75 254.542 23.6813C254.542 23.613 254.862 23.5572 255.256 23.5572C255.651 23.5572 255.971 23.613 255.971 23.6813Z" fill="#E0E0E0"/>
<path d="M258.828 23.6813C258.828 23.7495 258.508 23.8053 258.114 23.8053C257.719 23.8053 257.399 23.75 257.399 23.6813C257.399 23.613 257.719 23.5572 258.114 23.5572C258.508 23.5572 258.828 23.613 258.828 23.6813Z" fill="#E0E0E0"/>
<path d="M261.685 23.6813C261.685 23.7495 261.365 23.8053 260.971 23.8053C260.576 23.8053 260.256 23.75 260.256 23.6813C260.256 23.613 260.576 23.5572 260.971 23.5572C261.365 23.5572 261.685 23.613 261.685 23.6813Z" fill="#E0E0E0"/>
<path d="M264.543 23.6813C264.543 23.7495 264.223 23.8053 263.828 23.8053C263.434 23.8053 263.114 23.75 263.114 23.6813C263.114 23.613 263.434 23.5572 263.828 23.5572C264.223 23.5572 264.543 23.613 264.543 23.6813Z" fill="#E0E0E0"/>
<path d="M267.4 23.6813C267.4 23.7495 267.08 23.8053 266.685 23.8053C266.291 23.8053 265.971 23.75 265.971 23.6813C265.971 23.613 266.291 23.5572 266.685 23.5572C267.08 23.5572 267.4 23.613 267.4 23.6813Z" fill="#E0E0E0"/>
<path d="M270.257 23.6813C270.257 23.7495 269.937 23.8053 269.543 23.8053C269.148 23.8053 268.828 23.75 268.828 23.6813C268.828 23.613 269.148 23.5572 269.543 23.5572C269.937 23.5572 270.257 23.613 270.257 23.6813Z" fill="#E0E0E0"/>
<path d="M272.932 23.8636C272.9 23.8636 272.872 23.7953 272.85 23.6813L272.932 23.7634C272.803 23.7889 272.613 23.8053 272.4 23.8053C272.005 23.8053 271.686 23.75 271.686 23.6813C271.686 23.613 272.005 23.5572 272.4 23.5572C272.612 23.5572 272.803 23.5732 272.932 23.5991L273.027 23.618L273.014 23.6817C272.992 23.7953 272.963 23.8636 272.932 23.8636Z" fill="#E0E0E0"/>
<path d="M272.932 26.7208C272.863 26.7208 272.808 26.401 272.808 26.0064C272.808 25.6119 272.863 25.2921 272.932 25.2921C273 25.2921 273.056 25.6119 273.056 26.0064C273.056 26.401 273 26.7208 272.932 26.7208Z" fill="#E0E0E0"/>
<path d="M272.932 29.579C272.863 29.579 272.808 29.2592 272.808 28.8647C272.808 28.4701 272.863 28.1503 272.932 28.1503C273 28.1503 273.056 28.4701 273.056 28.8647C273.056 29.2592 273 29.579 272.932 29.579Z" fill="#E0E0E0"/>
<path d="M272.932 32.4366C272.863 32.4366 272.808 32.1168 272.808 31.7222C272.808 31.3277 272.863 31.0079 272.932 31.0079C273 31.0079 273.056 31.3277 273.056 31.7222C273.056 32.1168 273 32.4366 272.932 32.4366Z" fill="#E0E0E0"/>
<path d="M272.932 35.2928C272.863 35.2928 272.808 34.973 272.808 34.5785C272.808 34.1839 272.863 33.8641 272.932 33.8641C273 33.8641 273.056 34.1839 273.056 34.5785C273.055 34.973 273 35.2928 272.932 35.2928Z" fill="#E0E0E0"/>
<path d="M272.932 38.1496C272.863 38.1496 272.808 37.8298 272.808 37.4353C272.808 37.0407 272.863 36.7209 272.932 36.7209C273 36.7209 273.056 37.0407 273.056 37.4353C273.055 37.8298 273 38.1496 272.932 38.1496Z" fill="#E0E0E0"/>
<path d="M272.932 41.0067C272.863 41.0067 272.808 40.6869 272.808 40.2923C272.808 39.8978 272.863 39.578 272.932 39.578C273 39.578 273.056 39.8978 273.056 40.2923C273.056 40.6869 273 41.0067 272.932 41.0067Z" fill="#E0E0E0"/>
<path d="M272.932 43.865C272.863 43.865 272.808 43.5451 272.808 43.1506C272.808 42.7561 272.863 42.4362 272.932 42.4362C273 42.4362 273.056 42.7561 273.056 43.1506C273.056 43.5451 273 43.865 272.932 43.865Z" fill="#E0E0E0"/>
<path d="M272.932 46.7221C272.863 46.7221 272.808 46.4023 272.808 46.0078C272.808 45.6132 272.863 45.2934 272.932 45.2934C273 45.2934 273.056 45.6132 273.056 46.0078C273.055 46.4023 273 46.7221 272.932 46.7221Z" fill="#E0E0E0"/>
<path d="M272.932 49.5789C272.863 49.5789 272.808 49.2591 272.808 48.8645C272.808 48.47 272.863 48.1502 272.932 48.1502C273 48.1502 273.056 48.47 273.056 48.8645C273.055 49.2591 273 49.5789 272.932 49.5789Z" fill="#E0E0E0"/>
<path d="M272.932 52.4351C272.863 52.4351 272.808 52.1152 272.808 51.7207C272.808 51.3262 272.863 51.0063 272.932 51.0063C273 51.0063 273.056 51.3262 273.056 51.7207C273.056 52.1152 273 52.4351 272.932 52.4351Z" fill="#E0E0E0"/>
<path d="M272.932 55.2926C272.863 55.2926 272.808 54.9728 272.808 54.5783C272.808 54.1837 272.863 53.8639 272.932 53.8639C273 53.8639 273.056 54.1837 273.056 54.5783C273.056 54.9728 273 55.2926 272.932 55.2926Z" fill="#E0E0E0"/>
<path d="M272.932 58.1508C272.863 58.1508 272.808 57.831 272.808 57.4365C272.808 57.042 272.863 56.7221 272.932 56.7221C273 56.7221 273.056 57.042 273.056 57.4365C273.056 57.831 273 58.1508 272.932 58.1508Z" fill="#E0E0E0"/>
<path d="M272.932 61.0082C272.863 61.0082 272.808 60.6884 272.808 60.2938C272.808 59.8993 272.863 59.5795 272.932 59.5795C273 59.5795 273.056 59.8993 273.056 60.2938C273.055 60.6884 273 61.0082 272.932 61.0082Z" fill="#E0E0E0"/>
<path d="M272.932 63.865C272.863 63.865 272.808 63.5452 272.808 63.1506C272.808 62.7561 272.863 62.4363 272.932 62.4363C273 62.4363 273.056 62.7561 273.056 63.1506C273.055 63.5447 273 63.865 272.932 63.865Z" fill="#E0E0E0"/>
<path d="M272.932 66.721C272.863 66.721 272.808 66.4012 272.808 66.0066C272.808 65.6121 272.863 65.2923 272.932 65.2923C273 65.2923 273.056 65.6121 273.056 66.0066C273.056 66.4012 273 66.721 272.932 66.721Z" fill="#E0E0E0"/>
<path d="M272.932 69.5805C272.863 69.5805 272.808 69.2607 272.808 68.8661C272.808 68.4716 272.863 68.1518 272.932 68.1518C273 68.1518 273.056 68.4716 273.056 68.8661C273.056 69.2607 273 69.5805 272.932 69.5805Z" fill="#E0E0E0"/>
<path d="M272.932 72.4364C272.863 72.4364 272.808 72.1166 272.808 71.722C272.808 71.3275 272.863 71.0077 272.932 71.0077C273 71.0077 273.056 71.3275 273.056 71.722C273.055 72.1166 273 72.4364 272.932 72.4364Z" fill="#E0E0E0"/>
<path d="M274.817 72.1751H271.048V75.9441H274.817V72.1751Z" fill="#E0E0E0"/>
<path d="M223.923 72.6893H220.154V76.4584H223.923V72.6893Z" fill="#E0E0E0"/>
<path d="M274.817 21.4298H271.048V25.1989H274.817V21.4298Z" fill="#E0E0E0"/>
<path d="M223.923 21.7975H220.154V25.5665H223.923V21.7975Z" fill="#E0E0E0"/>
<path d="M68.4162 53.1441C68.4162 53.0758 68.8949 53.0201 69.4852 53.0201C69.6003 53.0225 69.7129 53.0245 69.8449 53.0275L69.7283 53.1441C69.7457 52.7296 69.7911 52.4347 69.8449 52.4347C69.8987 52.4347 69.9445 52.7296 69.9614 53.1441L69.9664 53.2587L69.8449 53.2612C69.7124 53.2637 69.6003 53.2661 69.4852 53.2686C68.8944 53.2681 68.4162 53.2123 68.4162 53.1441Z" fill="#E0E0E0"/>
<path d="M65.5584 53.1457C65.5584 53.0775 65.8782 53.0217 66.2728 53.0217C66.6673 53.0217 66.9871 53.077 66.9871 53.1457C66.9871 53.214 66.6673 53.2697 66.2728 53.2697C65.8782 53.2697 65.5584 53.214 65.5584 53.1457Z" fill="#E0E0E0"/>
<path d="M62.7011 53.1457C62.7011 53.0775 63.0209 53.0217 63.4155 53.0217C63.81 53.0217 64.1298 53.077 64.1298 53.1457C64.1298 53.214 63.81 53.2697 63.4155 53.2697C63.0209 53.2697 62.7011 53.214 62.7011 53.1457Z" fill="#E0E0E0"/>
<path d="M59.8443 53.1457C59.8443 53.0775 60.1641 53.0217 60.5587 53.0217C60.9532 53.0217 61.273 53.077 61.273 53.1457C61.273 53.214 60.9532 53.2697 60.5587 53.2697C60.1641 53.2697 59.8443 53.214 59.8443 53.1457Z" fill="#E0E0E0"/>
<path d="M56.9871 53.1457C56.9871 53.0775 57.3069 53.0217 57.7014 53.0217C58.096 53.0217 58.4158 53.077 58.4158 53.1457C58.4158 53.214 58.096 53.2697 57.7014 53.2697C57.3069 53.2697 56.9871 53.214 56.9871 53.1457Z" fill="#E0E0E0"/>
<path d="M54.1303 53.1457C54.1303 53.0775 54.4501 53.0217 54.8446 53.0217C55.2392 53.0217 55.559 53.077 55.559 53.1457C55.559 53.214 55.2392 53.2697 54.8446 53.2697C54.4501 53.2697 54.1303 53.214 54.1303 53.1457Z" fill="#E0E0E0"/>
<path d="M51.2724 53.1457C51.2724 53.0775 51.5922 53.0217 51.9867 53.0217C52.3813 53.0217 52.7011 53.077 52.7011 53.1457C52.7011 53.214 52.3813 53.2697 51.9867 53.2697C51.5922 53.2697 51.2724 53.214 51.2724 53.1457Z" fill="#E0E0E0"/>
<path d="M48.4151 53.1457C48.4151 53.0775 48.7349 53.0217 49.1295 53.0217C49.524 53.0217 49.8438 53.077 49.8438 53.1457C49.8438 53.214 49.524 53.2697 49.1295 53.2697C48.7349 53.2697 48.4151 53.214 48.4151 53.1457Z" fill="#E0E0E0"/>
<path d="M45.5583 53.1457C45.5583 53.0775 45.8781 53.0217 46.2727 53.0217C46.6672 53.0217 46.987 53.077 46.987 53.1457C46.987 53.214 46.6672 53.2697 46.2727 53.2697C45.8781 53.2697 45.5583 53.214 45.5583 53.1457Z" fill="#E0E0E0"/>
<path d="M42.7009 53.1457C42.7009 53.0775 43.0207 53.0217 43.4153 53.0217C43.8098 53.0217 44.1296 53.077 44.1296 53.1457C44.1296 53.214 43.8098 53.2697 43.4153 53.2697C43.0207 53.2697 42.7009 53.214 42.7009 53.1457Z" fill="#E0E0E0"/>
<path d="M39.8436 53.1457C39.8436 53.0775 40.1634 53.0217 40.558 53.0217C40.9525 53.0217 41.2723 53.077 41.2723 53.1457C41.2723 53.214 40.9525 53.2697 40.558 53.2697C40.1634 53.2697 39.8436 53.214 39.8436 53.1457Z" fill="#E0E0E0"/>
<path d="M36.9863 53.1457C36.9863 53.0775 37.3062 53.0217 37.7007 53.0217C38.0952 53.0217 38.4151 53.077 38.4151 53.1457C38.4151 53.214 38.0952 53.2697 37.7007 53.2697C37.3062 53.2697 36.9863 53.214 36.9863 53.1457Z" fill="#E0E0E0"/>
<path d="M34.1289 53.1457C34.1289 53.0775 34.4488 53.0217 34.8433 53.0217C35.2378 53.0217 35.5577 53.077 35.5577 53.1457C35.5577 53.214 35.2378 53.2697 34.8433 53.2697C34.4488 53.2697 34.1289 53.214 34.1289 53.1457Z" fill="#E0E0E0"/>
<path d="M31.2722 53.1457C31.2722 53.0775 31.592 53.0217 31.9865 53.0217C32.381 53.0217 32.7009 53.077 32.7009 53.1457C32.7009 53.214 32.381 53.2697 31.9865 53.2697C31.592 53.2697 31.2722 53.214 31.2722 53.1457Z" fill="#E0E0E0"/>
<path d="M28.4149 53.1457C28.4149 53.0775 28.7347 53.0217 29.1292 53.0217C29.5238 53.0217 29.8436 53.077 29.8436 53.1457C29.8436 53.214 29.5238 53.2697 29.1292 53.2697C28.7347 53.2697 28.4149 53.214 28.4149 53.1457Z" fill="#E0E0E0"/>
<path d="M25.5581 53.1457C25.5581 53.0775 25.8779 53.0217 26.2724 53.0217C26.667 53.0217 26.9868 53.077 26.9868 53.1457C26.9868 53.214 26.667 53.2697 26.2724 53.2697C25.8779 53.2697 25.5581 53.214 25.5581 53.1457Z" fill="#E0E0E0"/>
<path d="M22.7002 53.1457C22.7002 53.0775 23.02 53.0217 23.4146 53.0217C23.8091 53.0217 24.1289 53.077 24.1289 53.1457C24.1289 53.214 23.8091 53.2697 23.4146 53.2697C23.02 53.2697 22.7002 53.214 22.7002 53.1457Z" fill="#E0E0E0"/>
<path d="M19.8429 53.1457C19.8429 53.0775 20.1627 53.0217 20.5573 53.0217C20.9518 53.0217 21.2716 53.077 21.2716 53.1457C21.2716 53.214 20.9518 53.2697 20.5573 53.2697C20.1627 53.2697 19.8429 53.214 19.8429 53.1457Z" fill="#E0E0E0"/>
<path d="M18.9508 51.1795C19.0196 51.1795 19.0749 51.4993 19.0749 51.8938C19.0749 52.2884 19.0196 52.6082 18.9508 52.6082C18.8826 52.6082 18.8268 52.2884 18.8268 51.8938C18.8273 51.4993 18.8826 51.1795 18.9508 51.1795Z" fill="#E0E0E0"/>
<path d="M18.9511 48.3234C19.0198 48.3234 19.0751 48.6432 19.0751 49.0378C19.0751 49.4323 19.0198 49.7521 18.9511 49.7521C18.8828 49.7521 18.827 49.4323 18.827 49.0378C18.8275 48.6432 18.8828 48.3234 18.9511 48.3234Z" fill="#E0E0E0"/>
<path d="M18.9511 45.4656C19.0198 45.4656 19.0751 45.7854 19.0751 46.1799C19.0751 46.5745 19.0198 46.8943 18.9511 46.8943C18.8828 46.8943 18.827 46.5745 18.827 46.1799C18.8275 45.7854 18.8828 45.4656 18.9511 45.4656Z" fill="#E0E0E0"/>
<path d="M18.9508 42.6094C19.0196 42.6094 19.0749 42.9292 19.0749 43.3237C19.0749 43.7183 19.0196 44.0381 18.9508 44.0381C18.8826 44.0381 18.8268 43.7183 18.8268 43.3237C18.8273 42.9292 18.8826 42.6094 18.9508 42.6094Z" fill="#E0E0E0"/>
<path d="M18.9509 39.7516C19.0197 39.7516 19.075 40.0714 19.075 40.4659C19.075 40.8605 19.0197 41.1803 18.9509 41.1803C18.8827 41.1803 18.8269 40.8605 18.8269 40.4659C18.8274 40.0714 18.8827 39.7516 18.9509 39.7516Z" fill="#E0E0E0"/>
<path d="M18.9508 36.8936C19.0196 36.8936 19.0749 37.2134 19.0749 37.6079C19.0749 38.0025 19.0196 38.3223 18.9508 38.3223C18.8826 38.3223 18.8268 38.0025 18.8268 37.6079C18.8273 37.2134 18.8826 36.8936 18.9508 36.8936Z" fill="#E0E0E0"/>
<path d="M18.9511 34.0374C19.0198 34.0374 19.0751 34.3572 19.0751 34.7517C19.0751 35.1463 19.0198 35.4661 18.9511 35.4661C18.8828 35.4661 18.827 35.1463 18.827 34.7517C18.8275 34.3572 18.8828 34.0374 18.9511 34.0374Z" fill="#E0E0E0"/>
<path d="M18.9511 31.1795C19.0198 31.1795 19.0751 31.4993 19.0751 31.8939C19.0751 32.2884 19.0198 32.6082 18.9511 32.6082C18.8828 32.6082 18.827 32.2884 18.827 31.8939C18.827 31.4993 18.8828 31.1795 18.9511 31.1795Z" fill="#E0E0E0"/>
<path d="M18.9508 28.3235C19.0196 28.3235 19.0749 28.6433 19.0749 29.0378C19.0749 29.4323 19.0196 29.7522 18.9508 29.7522C18.8826 29.7522 18.8268 29.4323 18.8268 29.0378C18.8268 28.6433 18.8826 28.3235 18.9508 28.3235Z" fill="#E0E0E0"/>
<path d="M18.9508 25.4639C19.0196 25.4639 19.0749 25.7837 19.0749 26.1783C19.0749 26.5728 19.0196 26.8926 18.9508 26.8926C18.8826 26.8926 18.8268 26.5728 18.8268 26.1783C18.8273 25.7837 18.8826 25.4639 18.9508 25.4639Z" fill="#E0E0E0"/>
<path d="M18.9511 22.6081C19.0198 22.6081 19.0751 22.9279 19.0751 23.3224C19.0751 23.717 19.0198 24.0368 18.9511 24.0368C18.8828 24.0368 18.827 23.717 18.827 23.3224C18.8275 22.9279 18.8828 22.6081 18.9511 22.6081Z" fill="#E0E0E0"/>
<path d="M18.9511 19.7513C19.0198 19.7513 19.0751 20.0711 19.0751 20.4657C19.0751 20.8602 19.0198 21.18 18.9511 21.18C18.8828 21.18 18.827 20.8602 18.827 20.4657C18.8275 20.0711 18.8828 19.7513 18.9511 19.7513Z" fill="#E0E0E0"/>
<path d="M18.9511 16.8934C19.0198 16.8934 19.0751 17.2132 19.0751 17.6078C19.0751 18.0023 19.0198 18.3221 18.9511 18.3221C18.8828 18.3221 18.827 18.0023 18.827 17.6078C18.8275 17.2132 18.8828 16.8934 18.9511 16.8934Z" fill="#E0E0E0"/>
<path d="M18.9509 14.0373C19.0197 14.0373 19.075 14.3572 19.075 14.7517C19.075 15.1462 19.0197 15.466 18.9509 15.466C18.8827 15.466 18.8269 15.1462 18.8269 14.7517C18.8274 14.3572 18.8827 14.0373 18.9509 14.0373Z" fill="#E0E0E0"/>
<path d="M18.9508 11.178C19.0196 11.178 19.0749 11.4978 19.0749 11.8924C19.0749 12.2869 19.0196 12.6067 18.9508 12.6067C18.8826 12.6067 18.8268 12.2869 18.8268 11.8924C18.8273 11.4978 18.8826 11.178 18.9508 11.178Z" fill="#E0E0E0"/>
<path d="M18.9511 8.322C19.0198 8.322 19.0751 8.64182 19.0751 9.03636C19.0751 9.43089 19.0198 9.75071 18.9511 9.75071C18.8828 9.75071 18.827 9.43089 18.827 9.03636C18.8275 8.64182 18.8828 8.322 18.9511 8.322Z" fill="#E0E0E0"/>
<path d="M18.9511 5.46414C19.0198 5.46414 19.0751 5.78396 19.0751 6.1785C19.0751 6.57303 19.0198 6.89285 18.9511 6.89285C18.8828 6.89285 18.827 6.57303 18.827 6.1785C18.8275 5.78396 18.8828 5.46414 18.9511 5.46414Z" fill="#E0E0E0"/>
<path d="M18.9508 2.60792C19.0196 2.60792 19.0749 2.92773 19.0749 3.32227C19.0749 3.71681 19.0196 4.03663 18.9508 4.03663C18.8826 4.03663 18.8268 3.71681 18.8268 3.32227C18.8273 2.92773 18.8826 2.60792 18.9508 2.60792Z" fill="#E0E0E0"/>
<path d="M21.4542 2.25313C21.4542 2.32138 21.1344 2.37717 20.7399 2.37717C20.3453 2.37717 20.0255 2.32187 20.0255 2.25313C20.0255 2.18438 20.3453 2.12909 20.7399 2.12909C21.1344 2.12909 21.4542 2.18488 21.4542 2.25313Z" fill="#E0E0E0"/>
<path d="M24.3117 2.25313C24.3117 2.32138 23.9919 2.37717 23.5974 2.37717C23.2029 2.37717 22.883 2.32187 22.883 2.25313C22.883 2.18438 23.2029 2.12909 23.5974 2.12909C23.9919 2.12909 24.3117 2.18488 24.3117 2.25313Z" fill="#E0E0E0"/>
<path d="M27.168 2.25313C27.168 2.32138 26.8482 2.37717 26.4537 2.37717C26.0592 2.37717 25.7393 2.32187 25.7393 2.25313C25.7393 2.18438 26.0592 2.12909 26.4537 2.12909C26.8482 2.12909 27.168 2.18488 27.168 2.25313Z" fill="#E0E0E0"/>
<path d="M29.3116 2.37717C29.7061 2.37717 30.0259 2.32163 30.0259 2.25313C30.0259 2.18462 29.7061 2.12909 29.3116 2.12909C28.9171 2.12909 28.5972 2.18462 28.5972 2.25313C28.5972 2.32163 28.9171 2.37717 29.3116 2.37717Z" fill="#E0E0E0"/>
<path d="M32.8829 2.25313C32.8829 2.32138 32.563 2.37717 32.1685 2.37717C31.774 2.37717 31.4541 2.32187 31.4541 2.25313C31.4541 2.18438 31.774 2.12909 32.1685 2.12909C32.563 2.12909 32.8829 2.18488 32.8829 2.25313Z" fill="#E0E0E0"/>
<path d="M35.7401 2.25313C35.7401 2.32138 35.4203 2.37717 35.0258 2.37717C34.6312 2.37717 34.3114 2.32187 34.3114 2.25313C34.3114 2.18438 34.6312 2.12909 35.0258 2.12909C35.4203 2.12909 35.7401 2.18488 35.7401 2.25313Z" fill="#E0E0E0"/>
<path d="M38.597 2.25313C38.597 2.32138 38.2772 2.37717 37.8827 2.37717C37.4881 2.37717 37.1683 2.32187 37.1683 2.25313C37.1683 2.18438 37.4881 2.12909 37.8827 2.12909C38.2772 2.12909 38.597 2.18488 38.597 2.25313Z" fill="#E0E0E0"/>
<path d="M41.4549 2.25313C41.4549 2.32138 41.1351 2.37717 40.7406 2.37717C40.346 2.37717 40.0262 2.32187 40.0262 2.25313C40.0262 2.18438 40.346 2.12909 40.7406 2.12909C41.1351 2.12909 41.4549 2.18488 41.4549 2.25313Z" fill="#E0E0E0"/>
<path d="M44.3118 2.25313C44.3118 2.32138 43.992 2.37717 43.5975 2.37717C43.2029 2.37717 42.8831 2.32187 42.8831 2.25313C42.8831 2.18438 43.2029 2.12909 43.5975 2.12909C43.992 2.12909 44.3118 2.18488 44.3118 2.25313Z" fill="#E0E0E0"/>
<path d="M47.1688 2.25313C47.1688 2.32138 46.8489 2.37717 46.4544 2.37717C46.0599 2.37717 45.74 2.32187 45.74 2.25313C45.74 2.18438 46.0599 2.12909 46.4544 2.12909C46.8489 2.12909 47.1688 2.18488 47.1688 2.25313Z" fill="#E0E0E0"/>
<path d="M50.0267 2.25313C50.0267 2.32138 49.7068 2.37717 49.3123 2.37717C48.9178 2.37717 48.5979 2.32187 48.5979 2.25313C48.5979 2.18438 48.9178 2.12909 49.3123 2.12909C49.7068 2.12909 50.0267 2.18488 50.0267 2.25313Z" fill="#E0E0E0"/>
<path d="M52.8836 2.25313C52.8836 2.32138 52.5637 2.37717 52.1692 2.37717C51.7747 2.37717 51.4549 2.32187 51.4549 2.25313C51.4549 2.18438 51.7747 2.12909 52.1692 2.12909C52.5637 2.12909 52.8836 2.18488 52.8836 2.25313Z" fill="#E0E0E0"/>
<path d="M55.7408 2.25313C55.7408 2.32138 55.421 2.37717 55.0265 2.37717C54.6319 2.37717 54.3121 2.32187 54.3121 2.25313C54.3121 2.18438 54.6319 2.12909 55.0265 2.12909C55.421 2.12909 55.7408 2.18488 55.7408 2.25313Z" fill="#E0E0E0"/>
<path d="M58.5978 2.25313C58.5978 2.32138 58.2779 2.37717 57.8834 2.37717C57.4889 2.37717 57.169 2.32187 57.169 2.25313C57.169 2.18438 57.4889 2.12909 57.8834 2.12909C58.2779 2.12909 58.5978 2.18488 58.5978 2.25313Z" fill="#E0E0E0"/>
<path d="M61.455 2.25313C61.455 2.32138 61.1352 2.37717 60.7407 2.37717C60.3461 2.37717 60.0263 2.32187 60.0263 2.25313C60.0263 2.18438 60.3461 2.12909 60.7407 2.12909C61.1352 2.12909 61.455 2.18488 61.455 2.25313Z" fill="#E0E0E0"/>
<path d="M64.3119 2.25313C64.3119 2.32138 63.9921 2.37717 63.5976 2.37717C63.203 2.37717 62.8832 2.32187 62.8832 2.25313C62.8832 2.18438 63.203 2.12909 63.5976 2.12909C63.9921 2.12909 64.3119 2.18488 64.3119 2.25313Z" fill="#E0E0E0"/>
<path d="M67.1698 2.25313C67.1698 2.32138 66.85 2.37717 66.4555 2.37717C66.0609 2.37717 65.7411 2.32187 65.7411 2.25313C65.7411 2.18438 66.0609 2.12909 66.4555 2.12909C66.85 2.12909 67.1698 2.18488 67.1698 2.25313Z" fill="#E0E0E0"/>
<path d="M69.8444 2.43545C69.813 2.43545 69.7841 2.36721 69.7622 2.25313L69.8444 2.33532C69.7159 2.36073 69.5246 2.37717 69.3124 2.37717C68.9179 2.37717 68.598 2.32187 68.598 2.25313C68.598 2.18438 68.9179 2.12909 69.3124 2.12909C69.5246 2.12909 69.7154 2.14503 69.8444 2.17093L69.9391 2.18986L69.9271 2.25363C69.9052 2.36721 69.8763 2.43545 69.8444 2.43545Z" fill="#E0E0E0"/>
<path d="M69.8443 5.29316C69.7756 5.29316 69.7203 4.97335 69.7203 4.57881C69.7203 4.18427 69.7756 3.86445 69.8443 3.86445C69.9126 3.86445 69.9683 4.18427 69.9683 4.57881C69.9683 4.97335 69.913 5.29316 69.8443 5.29316Z" fill="#E0E0E0"/>
<path d="M69.8444 8.14931C69.7757 8.14931 69.7204 7.8295 69.7204 7.43496C69.7204 7.04042 69.7757 6.7206 69.8444 6.7206C69.9127 6.7206 69.9685 7.04042 69.9685 7.43496C69.9685 7.8295 69.9132 8.14931 69.8444 8.14931Z" fill="#E0E0E0"/>
<path d="M69.8444 11.0072C69.7757 11.0072 69.7204 10.6874 69.7204 10.2928C69.7204 9.89829 69.7757 9.57848 69.8444 9.57848C69.9127 9.57848 69.9685 9.89829 69.9685 10.2928C69.9685 10.6874 69.9132 11.0072 69.8444 11.0072Z" fill="#E0E0E0"/>
<path d="M69.8443 13.8633C69.7756 13.8633 69.7203 13.5435 69.7203 13.1489C69.7203 12.7544 69.7756 12.4346 69.8443 12.4346C69.9126 12.4346 69.9683 12.7544 69.9683 13.1489C69.9683 13.5435 69.913 13.8633 69.8443 13.8633Z" fill="#E0E0E0"/>
<path d="M69.8443 16.7215C69.7756 16.7215 69.7203 16.4017 69.7203 16.0071C69.7203 15.6126 69.7756 15.2928 69.8443 15.2928C69.9126 15.2928 69.9683 15.6126 69.9683 16.0071C69.9683 16.4017 69.913 16.7215 69.8443 16.7215Z" fill="#E0E0E0"/>
<path d="M69.8444 19.5786C69.7757 19.5786 69.7204 19.2588 69.7204 18.8643C69.7204 18.4697 69.7757 18.1499 69.8444 18.1499C69.9127 18.1499 69.9685 18.4697 69.9685 18.8643C69.9685 19.2588 69.9132 19.5786 69.8444 19.5786Z" fill="#E0E0E0"/>
<path d="M69.8444 22.4354C69.7757 22.4354 69.7204 22.1156 69.7204 21.721C69.7204 21.3265 69.7757 21.0067 69.8444 21.0067C69.9127 21.0067 69.9685 21.3265 69.9685 21.721C69.9685 22.1156 69.9132 22.4354 69.8444 22.4354Z" fill="#E0E0E0"/>
<path d="M69.8443 25.2916C69.7756 25.2916 69.7203 24.9718 69.7203 24.5773C69.7203 24.1827 69.7756 23.8629 69.8443 23.8629C69.9126 23.8629 69.9683 24.1827 69.9683 24.5773C69.9683 24.9718 69.913 25.2916 69.8443 25.2916Z" fill="#E0E0E0"/>
<path d="M69.8443 28.1492C69.7756 28.1492 69.7203 27.8294 69.7203 27.4348C69.7203 27.0403 69.7756 26.7205 69.8443 26.7205C69.9126 26.7205 69.9683 27.0403 69.9683 27.4348C69.9683 27.8289 69.913 28.1492 69.8443 28.1492Z" fill="#E0E0E0"/>
<path d="M69.8443 31.0074C69.7756 31.0074 69.7203 30.6876 69.7203 30.293C69.7203 29.8985 69.7756 29.5787 69.8443 29.5787C69.9126 29.5787 69.9683 29.8985 69.9683 30.293C69.9683 30.6876 69.913 31.0074 69.8443 31.0074Z" fill="#E0E0E0"/>
<path d="M69.8444 33.8647C69.7757 33.8647 69.7204 33.5449 69.7204 33.1503C69.7204 32.7558 69.7757 32.436 69.8444 32.436C69.9127 32.436 69.9685 32.7558 69.9685 33.1503C69.9685 33.5449 69.9132 33.8647 69.8444 33.8647Z" fill="#E0E0E0"/>
<path d="M69.8444 36.7215C69.7757 36.7215 69.7204 36.4016 69.7204 36.0071C69.7204 35.6126 69.7757 35.2927 69.8444 35.2927C69.9127 35.2927 69.9685 35.6126 69.9685 36.0071C69.9685 36.4016 69.9132 36.7215 69.8444 36.7215Z" fill="#E0E0E0"/>
<path d="M69.8443 39.5788C69.7756 39.5788 69.7203 39.259 69.7203 38.8645C69.7203 38.4699 69.7756 38.1501 69.8443 38.1501C69.9126 38.1501 69.9683 38.4699 69.9683 38.8645C69.9683 39.259 69.913 39.5788 69.8443 39.5788Z" fill="#E0E0E0"/>
<path d="M69.8443 42.437C69.7756 42.437 69.7203 42.1172 69.7203 41.7227C69.7203 41.3281 69.7756 41.0083 69.8443 41.0083C69.9126 41.0083 69.9683 41.3281 69.9683 41.7227C69.9683 42.1167 69.913 42.437 69.8443 42.437Z" fill="#E0E0E0"/>
<path d="M69.8444 45.2929C69.7757 45.2929 69.7204 44.9731 69.7204 44.5785C69.7204 44.184 69.7757 43.8642 69.8444 43.8642C69.9127 43.8642 69.9685 44.184 69.9685 44.5785C69.9685 44.9731 69.9132 45.2929 69.8444 45.2929Z" fill="#E0E0E0"/>
<path d="M69.8444 48.1507C69.7757 48.1507 69.7204 47.8309 69.7204 47.4364C69.7204 47.0419 69.7757 46.722 69.8444 46.722C69.9127 46.722 69.9685 47.0419 69.9685 47.4364C69.9685 47.8309 69.9132 48.1507 69.8444 48.1507Z" fill="#E0E0E0"/>
<path d="M69.8444 51.0075C69.7757 51.0075 69.7204 50.6877 69.7204 50.2932C69.7204 49.8986 69.7757 49.5788 69.8444 49.5788C69.9127 49.5788 69.9685 49.8986 69.9685 50.2932C69.9685 50.6877 69.9132 51.0075 69.8444 51.0075Z" fill="#E0E0E0"/>
<path d="M71.7286 50.7452H67.9596V54.5142H71.7286V50.7452Z" fill="#E0E0E0"/>
<path d="M20.8358 51.2603H17.0668V55.0294H20.8358V51.2603Z" fill="#E0E0E0"/>
<path d="M71.7286 0H67.9596V3.76904H71.7286V0Z" fill="#E0E0E0"/>
<path d="M20.8358 0.366556H17.0668V4.1356H20.8358V0.366556Z" fill="#E0E0E0"/>
<path d="M330.242 114.999C330.242 114.946 330.614 114.902 331.073 114.902C331.163 114.904 331.25 114.906 331.353 114.908L331.262 114.998C331.276 114.676 331.311 114.447 331.353 114.447C331.395 114.447 331.43 114.676 331.444 114.998L331.448 115.087L331.353 115.089C331.25 115.091 331.163 115.093 331.073 115.095C330.615 115.096 330.242 115.052 330.242 114.999Z" fill="#E0E0E0"/>
<path d="M328.021 115C328.021 114.946 328.27 114.903 328.577 114.903C328.884 114.903 329.132 114.946 329.132 115C329.132 115.053 328.884 115.096 328.577 115.096C328.27 115.096 328.021 115.053 328.021 115Z" fill="#E0E0E0"/>
<path d="M325.799 115C325.799 114.946 326.048 114.903 326.355 114.903C326.662 114.903 326.91 114.946 326.91 115C326.91 115.053 326.662 115.096 326.355 115.096C326.048 115.096 325.799 115.053 325.799 115Z" fill="#E0E0E0"/>
<path d="M323.577 114.999C323.577 114.946 323.826 114.903 324.133 114.903C324.44 114.903 324.688 114.946 324.688 114.999C324.688 115.053 324.44 115.096 324.133 115.096C323.826 115.096 323.577 115.053 323.577 114.999Z" fill="#E0E0E0"/>
<path d="M321.355 114.999C321.355 114.946 321.604 114.903 321.911 114.903C322.218 114.903 322.466 114.946 322.466 114.999C322.466 115.053 322.218 115.096 321.911 115.096C321.604 115.096 321.355 115.053 321.355 114.999Z" fill="#E0E0E0"/>
<path d="M319.134 114.999C319.134 114.946 319.382 114.903 319.689 114.903C319.996 114.903 320.245 114.946 320.245 114.999C320.245 115.053 319.996 115.096 319.689 115.096C319.382 115.096 319.134 115.053 319.134 114.999Z" fill="#E0E0E0"/>
<path d="M316.912 114.999C316.912 114.946 317.16 114.903 317.467 114.903C317.774 114.903 318.023 114.946 318.023 114.999C318.023 115.053 317.774 115.096 317.467 115.096C317.16 115.096 316.912 115.053 316.912 114.999Z" fill="#E0E0E0"/>
<path d="M314.69 115C314.69 114.946 314.939 114.903 315.246 114.903C315.552 114.903 315.801 114.946 315.801 115C315.801 115.053 315.552 115.096 315.246 115.096C314.939 115.096 314.69 115.053 314.69 115Z" fill="#E0E0E0"/>
<path d="M312.468 115C312.468 114.946 312.717 114.903 313.024 114.903C313.331 114.903 313.579 114.946 313.579 115C313.579 115.053 313.331 115.096 313.024 115.096C312.717 115.096 312.468 115.053 312.468 115Z" fill="#E0E0E0"/>
<path d="M310.247 115C310.247 114.946 310.496 114.903 310.803 114.903C311.11 114.903 311.358 114.946 311.358 115C311.358 115.053 311.11 115.096 310.803 115.096C310.496 115.096 310.247 115.053 310.247 115Z" fill="#E0E0E0"/>
<path d="M308.025 115C308.025 114.946 308.274 114.903 308.58 114.903C308.887 114.903 309.136 114.946 309.136 115C309.136 115.053 308.887 115.096 308.58 115.096C308.274 115.096 308.025 115.053 308.025 115Z" fill="#E0E0E0"/>
<path d="M305.804 115C305.804 114.946 306.053 114.903 306.359 114.903C306.666 114.903 306.915 114.946 306.915 115C306.915 115.053 306.666 115.096 306.359 115.096C306.053 115.096 305.804 115.053 305.804 115Z" fill="#E0E0E0"/>
<path d="M303.582 114.999C303.582 114.946 303.83 114.903 304.137 114.903C304.444 114.903 304.693 114.946 304.693 114.999C304.693 115.053 304.444 115.096 304.137 115.096C303.83 115.096 303.582 115.053 303.582 114.999Z" fill="#E0E0E0"/>
<path d="M301.36 114.999C301.36 114.946 301.609 114.903 301.916 114.903C302.223 114.903 302.471 114.946 302.471 114.999C302.471 115.053 302.223 115.096 301.916 115.096C301.609 115.096 301.36 115.053 301.36 114.999Z" fill="#E0E0E0"/>
<path d="M299.138 114.999C299.138 114.946 299.386 114.903 299.693 114.903C300 114.903 300.249 114.946 300.249 114.999C300.249 115.053 300 115.096 299.693 115.096C299.386 115.096 299.138 115.053 299.138 114.999Z" fill="#E0E0E0"/>
<path d="M296.916 114.999C296.916 114.946 297.165 114.903 297.472 114.903C297.779 114.903 298.027 114.946 298.027 114.999C298.027 115.053 297.779 115.096 297.472 115.096C297.165 115.096 296.916 115.053 296.916 114.999Z" fill="#E0E0E0"/>
<path d="M294.695 114.999C294.695 114.946 294.944 114.903 295.25 114.903C295.557 114.903 295.806 114.946 295.806 114.999C295.806 115.053 295.557 115.096 295.25 115.096C294.944 115.096 294.695 115.053 294.695 114.999Z" fill="#E0E0E0"/>
<path d="M292.473 115C292.473 114.946 292.721 114.903 293.028 114.903C293.335 114.903 293.583 114.946 293.583 115C293.583 115.053 293.335 115.096 293.028 115.096C292.721 115.096 292.473 115.053 292.473 115Z" fill="#E0E0E0"/>
<path d="M291.78 113.471C291.833 113.471 291.876 113.719 291.876 114.026C291.876 114.333 291.833 114.581 291.78 114.581C291.726 114.581 291.684 114.333 291.684 114.026C291.684 113.719 291.726 113.471 291.78 113.471Z" fill="#E0E0E0"/>
<path d="M291.78 111.248C291.833 111.248 291.876 111.496 291.876 111.803C291.876 112.11 291.833 112.359 291.78 112.359C291.726 112.359 291.684 112.11 291.684 111.803C291.684 111.496 291.726 111.248 291.78 111.248Z" fill="#E0E0E0"/>
<path d="M291.78 109.028C291.833 109.028 291.876 109.276 291.876 109.583C291.876 109.89 291.833 110.138 291.78 110.138C291.726 110.138 291.684 109.89 291.684 109.583C291.684 109.277 291.726 109.028 291.78 109.028Z" fill="#E0E0E0"/>
<path d="M291.78 106.805C291.833 106.805 291.876 107.053 291.876 107.36C291.876 107.667 291.833 107.915 291.78 107.915C291.726 107.915 291.684 107.667 291.684 107.36C291.684 107.054 291.726 106.805 291.78 106.805Z" fill="#E0E0E0"/>
<path d="M291.78 104.583C291.833 104.583 291.876 104.832 291.876 105.139C291.876 105.446 291.833 105.694 291.78 105.694C291.726 105.694 291.684 105.446 291.684 105.139C291.684 104.832 291.726 104.583 291.78 104.583Z" fill="#E0E0E0"/>
<path d="M291.78 102.363C291.833 102.363 291.876 102.612 291.876 102.919C291.876 103.226 291.833 103.474 291.78 103.474C291.726 103.474 291.684 103.226 291.684 102.919C291.684 102.612 291.726 102.363 291.78 102.363Z" fill="#E0E0E0"/>
<path d="M291.78 100.14C291.833 100.14 291.876 100.389 291.876 100.696C291.876 101.003 291.833 101.251 291.78 101.251C291.726 101.251 291.684 101.003 291.684 100.696C291.684 100.389 291.726 100.14 291.78 100.14Z" fill="#E0E0E0"/>
<path d="M291.78 97.9202C291.833 97.9202 291.876 98.1687 291.876 98.4756C291.876 98.7825 291.833 99.031 291.78 99.031C291.726 99.031 291.684 98.7825 291.684 98.4756C291.684 98.1687 291.726 97.9202 291.78 97.9202Z" fill="#E0E0E0"/>
<path d="M291.78 95.6973C291.833 95.6973 291.876 95.9459 291.876 96.2528C291.876 96.5596 291.833 96.8082 291.78 96.8082C291.726 96.8082 291.684 96.5596 291.684 96.2528C291.684 95.9459 291.726 95.6973 291.78 95.6973Z" fill="#E0E0E0"/>
<path d="M291.78 93.4753C291.833 93.4753 291.876 93.7239 291.876 94.0307C291.876 94.3376 291.833 94.5862 291.78 94.5862C291.726 94.5862 291.684 94.3376 291.684 94.0307C291.684 93.7239 291.726 93.4753 291.78 93.4753Z" fill="#E0E0E0"/>
<path d="M291.78 91.2525C291.833 91.2525 291.876 91.5011 291.876 91.8079C291.876 92.1148 291.833 92.3634 291.78 92.3634C291.726 92.3634 291.684 92.1148 291.684 91.8079C291.684 91.5011 291.726 91.2525 291.78 91.2525Z" fill="#E0E0E0"/>
<path d="M291.78 89.0322C291.833 89.0322 291.876 89.2808 291.876 89.5877C291.876 89.8945 291.833 90.1431 291.78 90.1431C291.726 90.1431 291.684 89.8945 291.684 89.5877C291.684 89.2808 291.726 89.0322 291.78 89.0322Z" fill="#E0E0E0"/>
<path d="M291.78 86.8093C291.833 86.8093 291.876 87.0579 291.876 87.3647C291.876 87.6716 291.833 87.9202 291.78 87.9202C291.726 87.9202 291.684 87.6716 291.684 87.3647C291.684 87.0579 291.726 86.8093 291.78 86.8093Z" fill="#E0E0E0"/>
<path d="M291.78 84.5881C291.833 84.5881 291.876 84.8367 291.876 85.1436C291.876 85.4504 291.833 85.699 291.78 85.699C291.726 85.699 291.684 85.4504 291.684 85.1436C291.684 84.8367 291.726 84.5881 291.78 84.5881Z" fill="#E0E0E0"/>
<path d="M291.78 82.3667C291.833 82.3667 291.876 82.6152 291.876 82.9221C291.876 83.229 291.833 83.4776 291.78 83.4776C291.726 83.4776 291.684 83.229 291.684 82.9221C291.684 82.6157 291.726 82.3667 291.78 82.3667Z" fill="#E0E0E0"/>
<path d="M291.78 80.1451C291.833 80.1451 291.876 80.3936 291.876 80.7005C291.876 81.0074 291.833 81.2559 291.78 81.2559C291.726 81.2559 291.684 81.0074 291.684 80.7005C291.684 80.3936 291.726 80.1451 291.78 80.1451Z" fill="#E0E0E0"/>
<path d="M291.78 77.9236C291.833 77.9236 291.876 78.1722 291.876 78.4791C291.876 78.7859 291.833 79.0345 291.78 79.0345C291.726 79.0345 291.684 78.7859 291.684 78.4791C291.684 78.1722 291.726 77.9236 291.78 77.9236Z" fill="#E0E0E0"/>
<path d="M291.78 75.702C291.833 75.702 291.876 75.9506 291.876 76.2575C291.876 76.5643 291.833 76.8129 291.78 76.8129C291.726 76.8129 291.684 76.5643 291.684 76.2575C291.684 75.9506 291.726 75.702 291.78 75.702Z" fill="#E0E0E0"/>
<path d="M293.726 75.427C293.726 75.4803 293.478 75.5236 293.171 75.5236C292.864 75.5236 292.616 75.4803 292.616 75.427C292.616 75.3737 292.864 75.3308 293.171 75.3308C293.477 75.3304 293.726 75.3737 293.726 75.427Z" fill="#E0E0E0"/>
<path d="M295.947 75.427C295.947 75.4803 295.699 75.5236 295.392 75.5236C295.085 75.5236 294.837 75.4803 294.837 75.427C294.837 75.3737 295.085 75.3308 295.392 75.3308C295.699 75.3304 295.947 75.3737 295.947 75.427Z" fill="#E0E0E0"/>
<path d="M298.169 75.427C298.169 75.4803 297.92 75.5236 297.613 75.5236C297.306 75.5236 297.058 75.4803 297.058 75.427C297.058 75.3737 297.306 75.3308 297.613 75.3308C297.92 75.3304 298.169 75.3737 298.169 75.427Z" fill="#E0E0E0"/>
<path d="M300.39 75.427C300.39 75.4803 300.142 75.5236 299.835 75.5236C299.528 75.5236 299.279 75.4803 299.279 75.427C299.279 75.3737 299.528 75.3308 299.835 75.3308C300.142 75.3304 300.39 75.3737 300.39 75.427Z" fill="#E0E0E0"/>
<path d="M302.612 75.4267C302.612 75.48 302.364 75.5234 302.057 75.5234C301.75 75.5234 301.502 75.48 301.502 75.4267C301.502 75.3734 301.75 75.3306 302.057 75.3306C302.364 75.3301 302.612 75.3734 302.612 75.4267Z" fill="#E0E0E0"/>
<path d="M304.834 75.427C304.834 75.4803 304.585 75.5236 304.279 75.5236C303.972 75.5236 303.723 75.4803 303.723 75.427C303.723 75.3737 303.972 75.3308 304.279 75.3308C304.585 75.3304 304.834 75.3737 304.834 75.427Z" fill="#E0E0E0"/>
<path d="M307.056 75.427C307.056 75.4803 306.808 75.5236 306.501 75.5236C306.194 75.5236 305.945 75.4803 305.945 75.427C305.945 75.3737 306.194 75.3308 306.501 75.3308C306.808 75.3304 307.056 75.3737 307.056 75.427Z" fill="#E0E0E0"/>
<path d="M309.278 75.4269C309.278 75.4802 309.029 75.5236 308.723 75.5236C308.416 75.5236 308.167 75.4802 308.167 75.4269C308.167 75.3736 308.416 75.3308 308.723 75.3308C309.029 75.3303 309.278 75.3736 309.278 75.4269Z" fill="#E0E0E0"/>
<path d="M311.499 75.4267C311.499 75.48 311.251 75.5234 310.944 75.5234C310.637 75.5234 310.388 75.48 310.388 75.4267C310.388 75.3734 310.637 75.3306 310.944 75.3306C311.251 75.3301 311.499 75.3734 311.499 75.4267Z" fill="#E0E0E0"/>
<path d="M313.722 75.427C313.722 75.4803 313.473 75.5236 313.166 75.5236C312.859 75.5236 312.611 75.4803 312.611 75.427C312.611 75.3737 312.859 75.3308 313.166 75.3308C313.473 75.3304 313.722 75.3737 313.722 75.427Z" fill="#E0E0E0"/>
<path d="M315.943 75.427C315.943 75.4803 315.695 75.5236 315.388 75.5236C315.081 75.5236 314.832 75.4803 314.832 75.427C314.832 75.3737 315.081 75.3308 315.388 75.3308C315.694 75.3304 315.943 75.3737 315.943 75.427Z" fill="#E0E0E0"/>
<path d="M318.165 75.427C318.165 75.4803 317.916 75.5236 317.609 75.5236C317.303 75.5236 317.054 75.4803 317.054 75.427C317.054 75.3737 317.303 75.3308 317.609 75.3308C317.916 75.3304 318.165 75.3737 318.165 75.427Z" fill="#E0E0E0"/>
<path d="M320.386 75.427C320.386 75.4803 320.137 75.5236 319.831 75.5236C319.524 75.5236 319.275 75.4803 319.275 75.427C319.275 75.3737 319.524 75.3308 319.831 75.3308C320.137 75.3304 320.386 75.3737 320.386 75.427Z" fill="#E0E0E0"/>
<path d="M322.608 75.4267C322.608 75.48 322.359 75.5234 322.052 75.5234C321.745 75.5234 321.497 75.48 321.497 75.4267C321.497 75.3734 321.745 75.3306 322.052 75.3306C322.359 75.3301 322.608 75.3734 322.608 75.4267Z" fill="#E0E0E0"/>
<path d="M324.83 75.4267C324.83 75.48 324.581 75.5234 324.274 75.5234C323.968 75.5234 323.719 75.48 323.719 75.4267C323.719 75.3734 323.968 75.3306 324.274 75.3306C324.581 75.3301 324.83 75.3734 324.83 75.4267Z" fill="#E0E0E0"/>
<path d="M327.052 75.4267C327.052 75.48 326.803 75.5234 326.496 75.5234C326.189 75.5234 325.941 75.48 325.941 75.4267C325.941 75.3734 326.189 75.3306 326.496 75.3306C326.803 75.3301 327.052 75.3734 327.052 75.4267Z" fill="#E0E0E0"/>
<path d="M329.273 75.4267C329.273 75.48 329.024 75.5234 328.718 75.5234C328.411 75.5234 328.162 75.48 328.162 75.4267C328.162 75.3734 328.411 75.3306 328.718 75.3306C329.024 75.3301 329.273 75.3734 329.273 75.4267Z" fill="#E0E0E0"/>
<path d="M331.353 75.5682C331.329 75.5682 331.307 75.5154 331.29 75.4262L331.353 75.49C331.253 75.5099 331.105 75.5223 330.94 75.5223C330.633 75.5223 330.384 75.479 330.384 75.4257C330.384 75.3724 330.633 75.3296 330.94 75.3296C331.105 75.3296 331.253 75.342 331.353 75.3619L331.427 75.3764L331.418 75.4257C331.401 75.5149 331.378 75.5682 331.353 75.5682Z" fill="#E0E0E0"/>
<path d="M331.353 77.7902C331.406 77.7902 331.449 77.5415 331.449 77.2347C331.449 76.928 331.406 76.6793 331.353 76.6793C331.3 76.6793 331.257 76.928 331.257 77.2347C331.257 77.5415 331.3 77.7902 331.353 77.7902Z" fill="#E0E0E0"/>
<path d="M331.353 80.0114C331.406 80.0114 331.449 79.7627 331.449 79.456C331.449 79.1492 331.406 78.9005 331.353 78.9005C331.3 78.9005 331.257 79.1492 331.257 79.456C331.257 79.7627 331.3 80.0114 331.353 80.0114Z" fill="#E0E0E0"/>
<path d="M331.353 82.2314C331.406 82.2314 331.449 81.9827 331.449 81.676C331.449 81.3692 331.406 81.1205 331.353 81.1205C331.3 81.1205 331.257 81.3692 331.257 81.676C331.257 81.9827 331.3 82.2314 331.353 82.2314Z" fill="#E0E0E0"/>
<path d="M331.353 84.4544C331.406 84.4544 331.449 84.2058 331.449 83.899C331.449 83.5922 331.406 83.3436 331.353 83.3436C331.3 83.3436 331.257 83.5922 331.257 83.899C331.257 84.2058 331.3 84.4544 331.353 84.4544Z" fill="#E0E0E0"/>
<path d="M331.353 86.6759C331.3 86.6759 331.257 86.4273 331.257 86.1204C331.257 85.8136 331.3 85.565 331.353 85.565C331.406 85.565 331.449 85.8136 331.449 86.1204C331.45 86.4273 331.406 86.6759 331.353 86.6759Z" fill="#E0E0E0"/>
<path d="M331.353 88.8975C331.3 88.8975 331.257 88.6489 331.257 88.342C331.257 88.0352 331.3 87.7866 331.353 87.7866C331.406 87.7866 331.449 88.0352 331.449 88.342C331.45 88.6489 331.406 88.8975 331.353 88.8975Z" fill="#E0E0E0"/>
<path d="M331.353 91.1195C331.3 91.1195 331.257 90.871 331.257 90.5641C331.257 90.2572 331.3 90.0087 331.353 90.0087C331.406 90.0087 331.449 90.2572 331.449 90.5641C331.45 90.871 331.406 91.1195 331.353 91.1195Z" fill="#E0E0E0"/>
<path d="M331.353 93.3421C331.3 93.3421 331.257 93.0935 331.257 92.7866C331.257 92.4798 331.3 92.2312 331.353 92.2312C331.407 92.2312 331.449 92.4798 331.449 92.7866C331.45 93.0935 331.407 93.3421 331.353 93.3421Z" fill="#E0E0E0"/>
<path d="M331.353 95.5636C331.406 95.5636 331.449 95.315 331.449 95.0082C331.449 94.7014 331.406 94.4528 331.353 94.4528C331.3 94.4528 331.257 94.7014 331.257 95.0082C331.257 95.315 331.3 95.5636 331.353 95.5636Z" fill="#E0E0E0"/>
<path d="M331.353 97.7854C331.406 97.7854 331.449 97.5367 331.449 97.2299C331.449 96.9232 331.406 96.6745 331.353 96.6745C331.3 96.6745 331.257 96.9232 331.257 97.2299C331.257 97.5367 331.3 97.7854 331.353 97.7854Z" fill="#E0E0E0"/>
<path d="M331.353 100.007C331.406 100.007 331.449 99.758 331.449 99.4513C331.449 99.1445 331.406 98.8958 331.353 98.8958C331.3 98.8958 331.257 99.1445 331.257 99.4513C331.257 99.758 331.3 100.007 331.353 100.007Z" fill="#E0E0E0"/>
<path d="M331.353 102.228C331.406 102.228 331.449 101.979 331.449 101.673C331.449 101.366 331.406 101.117 331.353 101.117C331.3 101.117 331.257 101.366 331.257 101.673C331.257 101.979 331.3 102.228 331.353 102.228Z" fill="#E0E0E0"/>
<path d="M331.353 104.45C331.406 104.45 331.449 104.201 331.449 103.894C331.449 103.588 331.406 103.339 331.353 103.339C331.3 103.339 331.257 103.588 331.257 103.894C331.257 104.201 331.3 104.45 331.353 104.45Z" fill="#E0E0E0"/>
<path d="M331.353 106.671C331.3 106.671 331.257 106.423 331.257 106.116C331.257 105.809 331.3 105.56 331.353 105.56C331.406 105.56 331.449 105.809 331.449 106.116C331.45 106.423 331.406 106.671 331.353 106.671Z" fill="#E0E0E0"/>
<path d="M331.353 108.893C331.3 108.893 331.257 108.644 331.257 108.337C331.257 108.03 331.3 107.782 331.353 107.782C331.406 107.782 331.449 108.03 331.449 108.337C331.45 108.644 331.406 108.893 331.353 108.893Z" fill="#E0E0E0"/>
<path d="M331.353 111.114C331.3 111.114 331.257 110.866 331.257 110.559C331.257 110.252 331.3 110.003 331.353 110.003C331.406 110.003 331.449 110.252 331.449 110.559C331.45 110.866 331.406 111.114 331.353 111.114Z" fill="#E0E0E0"/>
<path d="M331.353 113.337C331.3 113.337 331.257 113.089 331.257 112.782C331.257 112.475 331.3 112.226 331.353 112.226C331.407 112.226 331.449 112.475 331.449 112.782C331.45 113.089 331.407 113.337 331.353 113.337Z" fill="#E0E0E0"/>
<path d="M332.819 113.132H329.888V116.062H332.819V113.132Z" fill="#E0E0E0"/>
<path d="M293.245 113.533H290.314V116.464H293.245V113.533Z" fill="#E0E0E0"/>
<path d="M332.819 73.6746H329.888V76.6057H332.819V73.6746Z" fill="#E0E0E0"/>
<path d="M293.245 73.9598H290.314V76.8904H293.245V73.9598Z" fill="#E0E0E0"/>
<path d="M314.119 213H267.992C264.814 213 262.238 210.424 262.238 207.247V136.044C262.238 132.866 264.814 130.29 267.992 130.29H314.119C317.297 130.29 319.872 132.866 319.872 136.044V207.246C319.872 210.424 317.296 213 314.119 213Z" fill="#263238"/>
<path d="M317.969 135.95H264.056V205.022H317.969V135.95Z" fill="white"/>
<path d="M293.266 208.843C293.266 210.064 292.277 211.054 291.055 211.054C289.834 211.054 288.844 210.064 288.844 208.843C288.844 207.621 289.834 206.632 291.055 206.632C292.277 206.632 293.266 207.622 293.266 208.843Z" fill="#455A64"/>
<path d="M299.284 133.587H282.827C282.578 133.587 282.376 133.385 282.376 133.136V133.124C282.376 132.875 282.578 132.674 282.827 132.674H299.284C299.533 132.674 299.735 132.875 299.735 133.124V133.136C299.735 133.384 299.533 133.587 299.284 133.587Z" fill="#455A64"/>
<path d="M313.369 167.229H291.778V181.312H313.369V167.229Z" fill="#455A64"/>
<path d="M294.909 170.022C294.909 170.499 294.522 170.886 294.044 170.886C293.566 170.886 293.179 170.499 293.179 170.022C293.179 169.544 293.566 169.157 294.044 169.157C294.522 169.156 294.909 169.543 294.909 170.022Z" fill="#FAFAFA"/>
<path d="M312.198 170.749L311.487 170.053L310.826 170.728L310.805 168.711L312.176 168.696L312.198 170.749ZM311.486 169.965L311.508 169.986L312.134 170.599L312.114 168.759L310.867 168.772L310.887 170.577L311.486 169.965Z" fill="#FAFAFA"/>
<path d="M306.759 169.562C306.759 169.634 304.388 169.692 301.463 169.692C298.537 169.692 296.167 169.634 296.167 169.562C296.167 169.49 298.537 169.433 301.463 169.433C304.388 169.433 306.759 169.491 306.759 169.562Z" fill="#FAFAFA"/>
<path d="M300.25 170.75C300.25 170.822 299.336 170.88 298.209 170.88C297.081 170.88 296.167 170.821 296.167 170.75C296.167 170.679 297.081 170.621 298.209 170.621C299.336 170.621 300.25 170.678 300.25 170.75Z" fill="#FAFAFA"/>
<path d="M269.042 138.156C267.425 138.467 265.743 138.131 264.116 138.38C264.095 138.383 264.076 138.389 264.056 138.392V149.677C269.118 150.176 274.129 151.451 279.16 152.331C285.882 153.509 293.093 153.924 299.254 150.989C304.215 148.626 307.97 144.338 312.56 141.317C314.259 140.199 316.076 139.278 317.969 138.55V135.95H271.937C271.535 137.065 270.279 137.918 269.042 138.156ZM283.804 140.072C285.727 140.072 287.286 141.632 287.286 143.554C287.286 145.478 285.727 147.037 283.804 147.037C281.881 147.037 280.322 145.477 280.322 143.554C280.322 141.632 281.881 140.072 283.804 140.072Z" fill="#E8505B"/>
<path d="M299.254 150.989C293.093 153.924 285.882 153.509 279.159 152.332C274.129 151.451 269.118 150.176 264.056 149.677V157.579H317.969V138.551C316.076 139.278 314.259 140.199 312.56 141.318C307.97 144.339 304.215 148.626 299.254 150.989ZM289.255 155.467C289.089 155.467 288.955 155.333 288.955 155.168C288.955 155.002 289.089 154.868 289.255 154.868C289.42 154.868 289.554 155.002 289.554 155.168C289.554 155.333 289.42 155.467 289.255 155.467ZM291.153 155.467C290.987 155.467 290.853 155.333 290.853 155.168C290.853 155.002 290.987 154.868 291.153 154.868C291.318 154.868 291.452 155.002 291.452 155.168C291.451 155.333 291.317 155.467 291.153 155.467ZM293.05 155.467C292.885 155.467 292.751 155.333 292.751 155.168C292.751 155.002 292.885 154.868 293.05 154.868C293.215 154.868 293.349 155.002 293.349 155.168C293.349 155.333 293.215 155.467 293.05 155.467Z" fill="#E8505B"/>
<g opacity="0.3">
<path d="M299.254 150.989C293.093 153.924 285.882 153.509 279.159 152.332C274.129 151.451 269.118 150.176 264.056 149.677V157.579H317.969V138.551C316.076 139.278 314.259 140.199 312.56 141.318C307.97 144.339 304.215 148.626 299.254 150.989ZM289.255 155.467C289.089 155.467 288.955 155.333 288.955 155.168C288.955 155.002 289.089 154.868 289.255 154.868C289.42 154.868 289.554 155.002 289.554 155.168C289.554 155.333 289.42 155.467 289.255 155.467ZM291.153 155.467C290.987 155.467 290.853 155.333 290.853 155.168C290.853 155.002 290.987 154.868 291.153 154.868C291.318 154.868 291.452 155.002 291.452 155.168C291.451 155.333 291.317 155.467 291.153 155.467ZM293.05 155.467C292.885 155.467 292.751 155.333 292.751 155.168C292.751 155.002 292.885 154.868 293.05 154.868C293.215 154.868 293.349 155.002 293.349 155.168C293.349 155.333 293.215 155.467 293.05 155.467Z" fill="black"/>
</g>
<path d="M289.255 154.868C289.089 154.868 288.955 155.002 288.955 155.167C288.955 155.333 289.089 155.467 289.255 155.467C289.42 155.467 289.554 155.333 289.554 155.167C289.554 155.002 289.42 154.868 289.255 154.868Z" fill="#263238"/>
<path d="M291.153 154.868C290.987 154.868 290.853 155.002 290.853 155.167C290.853 155.333 290.987 155.467 291.153 155.467C291.318 155.467 291.453 155.333 291.453 155.167C291.452 155.002 291.318 154.868 291.153 154.868Z" fill="#263238"/>
<path d="M293.051 154.868C292.885 154.868 292.751 155.002 292.751 155.167C292.751 155.333 292.885 155.467 293.051 155.467C293.216 155.467 293.35 155.333 293.35 155.167C293.35 155.002 293.216 154.868 293.051 154.868Z" fill="#263238"/>
<path d="M283.803 147.036C285.727 147.036 287.286 145.477 287.286 143.554C287.286 141.631 285.727 140.072 283.803 140.072C281.88 140.072 280.321 141.631 280.321 143.554C280.321 145.477 281.88 147.036 283.803 147.036Z" fill="#E8505B"/>
<g opacity="0.3">
<path d="M283.803 147.036C285.727 147.036 287.286 145.477 287.286 143.554C287.286 141.631 285.727 140.072 283.803 140.072C281.88 140.072 280.321 141.631 280.321 143.554C280.321 145.477 281.88 147.036 283.803 147.036Z" fill="black"/>
</g>
<path d="M269.042 138.156C270.279 137.918 271.535 137.064 271.937 135.95H264.056V138.392C264.076 138.389 264.095 138.384 264.116 138.38C265.743 138.131 267.425 138.467 269.042 138.156Z" fill="#E8505B"/>
<path d="M311.967 161.989C311.967 162.06 302.584 162.118 291.012 162.118C279.437 162.118 270.056 162.06 270.056 161.989C270.056 161.917 279.437 161.859 291.012 161.859C302.584 161.859 311.967 161.917 311.967 161.989Z" fill="#263238"/>
<path d="M301.776 163.433C301.776 163.505 296.749 163.563 290.549 163.563C284.348 163.563 279.322 163.504 279.322 163.433C279.322 163.362 284.348 163.304 290.549 163.304C296.749 163.303 301.776 163.361 301.776 163.433Z" fill="#263238"/>
<path d="M288.794 167.229H267.203V181.312H288.794V167.229Z" fill="#E8505B"/>
<path d="M270.335 170.022C270.335 170.5 269.948 170.887 269.47 170.887C268.992 170.887 268.605 170.5 268.605 170.022C268.605 169.544 268.992 169.157 269.47 169.157C269.947 169.157 270.335 169.544 270.335 170.022Z" fill="#FAFAFA"/>
<path d="M287.623 170.749L286.912 170.053L286.252 170.728L286.23 168.711L287.601 168.697L287.623 170.749ZM286.911 169.965L286.933 169.987L287.559 170.599L287.539 168.759L286.292 168.773L286.312 170.578L286.911 169.965Z" fill="#FAFAFA"/>
<path d="M282.185 169.562C282.185 169.634 279.814 169.692 276.889 169.692C273.963 169.692 271.593 169.634 271.593 169.562C271.593 169.491 273.963 169.433 276.889 169.433C279.814 169.433 282.185 169.491 282.185 169.562Z" fill="#FAFAFA"/>
<path d="M275.676 170.75C275.676 170.822 274.762 170.88 273.635 170.88C272.507 170.88 271.593 170.822 271.593 170.75C271.593 170.679 272.507 170.621 273.635 170.621C274.762 170.621 275.676 170.679 275.676 170.75Z" fill="#FAFAFA"/>
<path d="M288.794 183.224C288.794 183.296 283.961 183.354 277.999 183.354C272.036 183.354 267.203 183.296 267.203 183.224C267.203 183.153 272.036 183.095 277.999 183.095C283.961 183.094 288.794 183.153 288.794 183.224Z" fill="#263238"/>
<path d="M288.794 184.508C288.794 184.58 283.96 184.638 277.999 184.638C272.036 184.638 267.203 184.579 267.203 184.508C267.203 184.437 272.036 184.379 277.999 184.379C283.96 184.379 288.794 184.436 288.794 184.508Z" fill="#263238"/>
<path d="M278.454 185.793C278.454 185.865 275.935 185.923 272.829 185.923C269.721 185.923 267.202 185.864 267.202 185.793C267.202 185.721 269.721 185.664 272.829 185.664C275.936 185.664 278.454 185.721 278.454 185.793Z" fill="#263238"/>
<path d="M288.794 188.273H267.203V202.355H288.794V188.273Z" fill="#E8505B"/>
<path d="M270.335 191.065C270.335 191.542 269.948 191.929 269.47 191.929C268.992 191.929 268.605 191.542 268.605 191.065C268.605 190.587 268.992 190.199 269.47 190.199C269.947 190.199 270.335 190.587 270.335 191.065Z" fill="#FAFAFA"/>
<path d="M287.623 191.791L286.912 191.095L286.252 191.77L286.23 189.754L287.601 189.739L287.623 191.791ZM286.911 191.008L286.934 191.03L287.559 191.642L287.539 189.802L286.293 189.816L286.312 191.62L286.911 191.008Z" fill="#FAFAFA"/>
<path d="M282.185 190.605C282.185 190.677 279.814 190.735 276.89 190.735C273.964 190.735 271.593 190.677 271.593 190.605C271.593 190.534 273.964 190.476 276.89 190.476C279.814 190.476 282.185 190.534 282.185 190.605Z" fill="#FAFAFA"/>
<path d="M275.676 191.792C275.676 191.864 274.762 191.922 273.635 191.922C272.507 191.922 271.593 191.863 271.593 191.792C271.593 191.72 272.507 191.663 273.635 191.663C274.762 191.663 275.676 191.721 275.676 191.792Z" fill="#FAFAFA"/>
<path d="M288.794 204.268C288.794 204.34 283.961 204.398 277.999 204.398C272.036 204.398 267.203 204.339 267.203 204.268C267.203 204.197 272.036 204.138 277.999 204.138C283.961 204.138 288.794 204.197 288.794 204.268Z" fill="#263238"/>
<path d="M313.949 188.273H292.358V202.355H313.949V188.273Z" fill="#455A64"/>
<path d="M295.489 191.065C295.489 191.542 295.102 191.929 294.624 191.929C294.146 191.929 293.759 191.542 293.759 191.065C293.759 190.587 294.146 190.199 294.624 190.199C295.102 190.199 295.489 190.587 295.489 191.065Z" fill="#FAFAFA"/>
<path d="M312.777 191.791L312.066 191.095L311.406 191.77L311.384 189.754L312.755 189.739L312.777 191.791ZM312.065 191.008L312.088 191.03L312.714 191.642L312.694 189.802L311.447 189.816L311.466 191.62L312.065 191.008Z" fill="#FAFAFA"/>
<path d="M307.338 190.605C307.338 190.677 304.967 190.735 302.043 190.735C299.117 190.735 296.746 190.677 296.746 190.605C296.746 190.534 299.117 190.476 302.043 190.476C304.967 190.476 307.338 190.534 307.338 190.605Z" fill="#FAFAFA"/>
<path d="M300.83 191.792C300.83 191.864 299.916 191.922 298.789 191.922C297.661 191.922 296.747 191.863 296.747 191.792C296.747 191.72 297.661 191.663 298.789 191.663C299.916 191.663 300.83 191.721 300.83 191.792Z" fill="#FAFAFA"/>
<path d="M313.949 204.268C313.949 204.34 309.115 204.397 303.154 204.397C297.19 204.397 292.358 204.339 292.358 204.268C292.358 204.197 297.19 204.138 303.154 204.138C309.115 204.138 313.949 204.197 313.949 204.268Z" fill="#263238"/>
<path d="M313.664 183.224C313.664 183.296 308.83 183.354 302.869 183.354C296.905 183.354 292.073 183.295 292.073 183.224C292.073 183.153 296.905 183.095 302.869 183.095C308.83 183.094 313.664 183.152 313.664 183.224Z" fill="#263238"/>
<path d="M313.664 184.508C313.664 184.58 308.83 184.637 302.869 184.637C296.905 184.637 292.073 184.579 292.073 184.508C292.073 184.437 296.905 184.378 302.869 184.378C308.83 184.378 313.664 184.436 313.664 184.508Z" fill="#263238"/>
<path d="M303.324 185.793C303.324 185.865 300.805 185.922 297.698 185.922C294.591 185.922 292.072 185.864 292.072 185.793C292.072 185.721 294.59 185.663 297.698 185.663C300.805 185.663 303.324 185.721 303.324 185.793Z" fill="#263238"/>
<g opacity="0.3">
<path d="M269.042 138.156C270.279 137.918 271.535 137.064 271.937 135.95H264.056V138.392C264.076 138.389 264.095 138.384 264.116 138.38C265.743 138.131 267.425 138.467 269.042 138.156Z" fill="white"/>
</g>
<path d="M255.133 48.4931H97.1296C94.4057 48.4931 92.1974 50.7009 92.1974 53.4248V165.026C92.1974 167.75 94.4052 169.958 97.1296 169.958H157.771C157.771 169.958 161.628 181.887 149.671 188.058H206.374C206.374 188.058 192.873 183.429 196.344 169.958H255.134C257.857 169.958 260.066 167.75 260.066 165.026V53.4248C260.065 50.7009 257.857 48.4931 255.133 48.4931Z" fill="#263238"/>
<path d="M178.24 158.222C180.39 161.294 177.025 164.658 173.953 162.509C173.852 162.437 173.76 162.345 173.689 162.244C171.545 159.173 174.905 155.813 177.976 157.957C178.077 158.029 178.169 158.12 178.24 158.222Z" fill="#455A64"/>
<path d="M254.539 150.332H97.3924C96.4918 150.332 95.762 149.603 95.762 148.702V56.8153C95.762 55.9146 96.4918 55.1848 97.3924 55.1848H254.539C255.44 55.1848 256.169 55.9146 256.169 56.8148V148.702C256.169 149.603 255.439 150.332 254.539 150.332Z" fill="#FAFAFA"/>
<path d="M254.539 150.582H97.3923C96.3557 150.582 95.5128 149.739 95.5128 148.702V56.8156C95.5128 55.779 96.3557 54.9361 97.3923 54.9361H254.539C255.575 54.9361 256.418 55.779 256.418 56.8151V148.702C256.418 149.739 255.575 150.582 254.539 150.582ZM97.3923 55.4343C96.6306 55.4343 96.0109 56.054 96.0109 56.8156V148.703C96.0109 149.464 96.6306 150.084 97.3923 150.084H254.539C255.3 150.084 255.92 149.465 255.92 148.703V56.8151C255.92 56.0535 255.3 55.4343 254.539 55.4343H97.3923Z" fill="white"/>
<path d="M108.918 58.8585C108.918 59.5659 108.345 60.1398 107.637 60.1398C106.929 60.1398 106.356 59.5664 106.356 58.8585C106.356 58.1506 106.929 57.5777 107.637 57.5777C108.345 57.5777 108.918 58.1511 108.918 58.8585Z" fill="#455A64"/>
<path d="M101.154 58.8585C101.154 59.5659 100.58 60.1398 99.8725 60.1398C99.1652 60.1398 98.5913 59.5664 98.5913 58.8585C98.5913 58.1506 99.1652 57.5777 99.8725 57.5777C100.58 57.5777 101.154 58.1511 101.154 58.8585Z" fill="#455A64"/>
<path d="M104.88 58.8585C104.88 59.5659 104.307 60.1398 103.599 60.1398C102.892 60.1398 102.318 59.5664 102.318 58.8585C102.318 58.1506 102.891 57.5777 103.599 57.5777C104.307 57.5777 104.88 58.1511 104.88 58.8585Z" fill="#455A64"/>
<path d="M206.362 107.414C206.362 107.486 193.046 107.544 176.624 107.544C160.196 107.544 146.883 107.486 146.883 107.414C146.883 107.343 160.196 107.285 176.624 107.285C193.046 107.285 206.362 107.343 206.362 107.414Z" fill="#263238"/>
<path d="M191.898 109.465C191.898 109.536 184.764 109.594 175.966 109.594C167.165 109.594 160.033 109.536 160.033 109.465C160.033 109.393 167.165 109.335 175.966 109.335C184.764 109.335 191.898 109.393 191.898 109.465Z" fill="#263238"/>
<path d="M149.561 118.277H111.596V143.038H149.561V118.277Z" fill="#E8505B"/>
<path d="M117.102 123.186C117.102 124.026 116.421 124.707 115.581 124.707C114.742 124.707 114.061 124.026 114.061 123.186C114.061 122.347 114.742 121.666 115.581 121.666C116.421 121.666 117.102 122.347 117.102 123.186Z" fill="#FAFAFA"/>
<path d="M147.501 124.467L146.252 123.243L145.09 124.43L145.052 120.885L147.463 120.859L147.501 124.467ZM146.25 123.089L146.289 123.127L147.39 124.205L147.355 120.969L145.162 120.992L145.196 124.166L146.25 123.089Z" fill="#FAFAFA"/>
<path d="M137.94 122.38C137.94 122.452 133.77 122.51 128.628 122.51C123.484 122.51 119.315 122.451 119.315 122.38C119.315 122.309 123.483 122.251 128.628 122.251C133.77 122.251 137.94 122.308 137.94 122.38Z" fill="#FAFAFA"/>
<path d="M126.495 124.468C126.495 124.54 124.887 124.597 122.905 124.597C120.922 124.597 119.315 124.539 119.315 124.468C119.315 124.396 120.922 124.338 122.905 124.338C124.887 124.338 126.495 124.396 126.495 124.468Z" fill="#FAFAFA"/>
<path d="M195.604 118.277H157.64V143.038H195.604V118.277Z" fill="#455A64"/>
<path d="M195.107 145.918C195.107 145.989 186.893 146.047 176.764 146.047C166.631 146.047 158.419 145.989 158.419 145.918C158.419 145.846 166.63 145.788 176.764 145.788C186.893 145.788 195.107 145.847 195.107 145.918Z" fill="#263238"/>
<path d="M161.626 124.707C162.466 124.707 163.147 124.026 163.147 123.186C163.147 122.347 162.466 121.666 161.626 121.666C160.786 121.666 160.105 122.347 160.105 123.186C160.105 124.026 160.786 124.707 161.626 124.707Z" fill="#FAFAFA"/>
<path d="M193.545 124.467L192.295 123.243L191.134 124.43L191.096 120.885L193.506 120.859L193.545 124.467ZM192.293 123.089L192.333 123.127L193.433 124.205L193.399 120.969L191.206 120.992L191.24 124.166L192.293 123.089Z" fill="#FAFAFA"/>
<path d="M183.983 122.38C183.983 122.452 179.813 122.51 174.671 122.51C169.527 122.51 165.358 122.451 165.358 122.38C165.358 122.309 169.526 122.251 174.671 122.251C179.813 122.251 183.983 122.308 183.983 122.38Z" fill="#FAFAFA"/>
<path d="M172.538 124.468C172.538 124.54 170.931 124.597 168.948 124.597C166.965 124.597 165.358 124.539 165.358 124.468C165.358 124.396 166.965 124.338 168.948 124.338C170.931 124.338 172.538 124.396 172.538 124.468Z" fill="#FAFAFA"/>
<path d="M241.647 118.277H203.683V143.038H241.647V118.277Z" fill="#E8505B"/>
<path d="M241.151 145.918C241.151 145.989 232.937 146.047 222.807 146.047C212.674 146.047 204.462 145.989 204.462 145.918C204.462 145.846 212.674 145.788 222.807 145.788C232.937 145.788 241.151 145.847 241.151 145.918Z" fill="#263238"/>
<path d="M209.189 123.186C209.189 124.026 208.508 124.707 207.668 124.707C206.829 124.707 206.148 124.026 206.148 123.186C206.148 122.347 206.829 121.666 207.668 121.666C208.508 121.666 209.189 122.347 209.189 123.186Z" fill="#FAFAFA"/>
<path d="M239.589 124.467L238.339 123.243L237.177 124.43L237.139 120.885L239.55 120.859L239.589 124.467ZM238.337 123.089L238.376 123.127L239.476 124.205L239.442 120.969L237.249 120.992L237.283 124.166L238.337 123.089Z" fill="#FAFAFA"/>
<path d="M230.026 122.38C230.026 122.452 225.857 122.51 220.714 122.51C215.57 122.51 211.401 122.451 211.401 122.38C211.401 122.309 215.57 122.251 220.714 122.251C225.857 122.251 230.026 122.308 230.026 122.38Z" fill="#FAFAFA"/>
<path d="M218.582 124.468C218.582 124.54 216.974 124.597 214.992 124.597C213.009 124.597 211.402 124.539 211.402 124.468C211.402 124.396 213.009 124.338 214.992 124.338C216.974 124.338 218.582 124.396 218.582 124.468Z" fill="#FAFAFA"/>
<path d="M254.924 130.992C254.924 133.9 252.567 136.257 249.659 136.257C246.751 136.257 244.394 133.9 244.394 130.992C244.394 128.084 246.751 125.727 249.659 125.727C252.567 125.727 254.924 128.084 254.924 130.992Z" fill="#E0E0E0"/>
<path d="M248.86 133.234C248.844 133.214 249.127 132.955 249.599 132.55C250.072 132.145 250.733 131.595 251.472 130.995L251.469 131.139C251.458 131.129 251.445 131.118 251.433 131.107C250.705 130.475 250.053 129.896 249.587 129.469C249.122 129.042 248.842 128.768 248.859 128.749C248.876 128.729 249.186 128.968 249.674 129.369C250.162 129.77 250.827 130.334 251.555 130.965C251.568 130.976 251.581 130.987 251.592 130.997L251.676 131.07L251.589 131.14C250.85 131.739 250.175 132.273 249.682 132.651C249.188 133.031 248.876 133.254 248.86 133.234Z" fill="#263238"/>
<path d="M97.5524 130.992C97.5524 128.084 99.9097 125.727 102.817 125.727C105.725 125.727 108.082 128.084 108.082 130.992C108.082 133.9 105.725 136.257 102.817 136.257C99.9097 136.257 97.5524 133.9 97.5524 130.992Z" fill="#E0E0E0"/>
<path d="M103.616 128.749C103.632 128.769 103.349 129.028 102.877 129.433C102.404 129.838 101.743 130.388 101.004 130.988L101.007 130.844C101.018 130.854 101.031 130.865 101.043 130.876C101.771 131.508 102.423 132.087 102.888 132.514C103.354 132.94 103.633 133.214 103.616 133.234C103.599 133.253 103.289 133.015 102.801 132.614C102.314 132.213 101.648 131.649 100.92 131.018C100.908 131.007 100.895 130.996 100.884 130.986L100.799 130.913L100.886 130.843C101.626 130.243 102.3 129.71 102.794 129.331C103.288 128.953 103.6 128.729 103.616 128.749Z" fill="#263238"/>
<path d="M95.9546 63.9119L95.9025 70.1307L95.9551 63.9128L143.891 64.4003C144.29 66.9362 141.694 69.0324 139.169 69.4969C136.644 69.9613 134.026 69.4147 131.486 69.7823C126.409 70.5164 122.574 74.6685 117.891 76.7612C110.202 80.1972 100.326 77.3244 95.9021 70.1576L95.6303 102.474L95.6439 100.854C100.964 91.6388 112.618 87.2568 123.257 87.0227C133.895 86.7892 144.293 89.8093 154.759 91.7323C165.224 93.6553 176.464 94.398 186.108 89.9023C193.874 86.2828 199.785 79.6471 206.981 74.9965C221.593 65.5532 241.631 65.3074 256.47 74.3898L256.222 103.813L95.6303 102.474L256.403 103.911L256.727 65.348L95.9546 63.9119ZM162.07 83.5366C159.072 83.5116 156.661 81.0603 156.686 78.0618C156.711 75.0632 159.163 72.6526 162.162 72.6782C165.16 72.7033 167.571 75.1545 167.545 78.1531C167.52 81.1516 165.069 83.5617 162.07 83.5366Z" fill="#E8505B"/>
<path d="M256.47 74.3895C241.631 65.3071 221.593 65.5529 206.981 74.9962C199.786 79.6468 193.874 86.2826 186.108 89.902C176.463 94.3977 165.224 93.655 154.759 91.732C144.293 89.809 133.895 86.7884 123.257 87.0225C112.618 87.256 100.964 91.638 95.6438 100.854L95.6303 102.474L256.222 103.812L256.47 74.3895ZM171.624 98.5669C171.275 98.5641 170.995 98.2789 170.997 97.9301C171 97.5812 171.285 97.3008 171.634 97.3036C171.983 97.3064 172.264 97.5916 172.261 97.9405C172.258 98.2893 171.973 98.5697 171.624 98.5669ZM175.63 98.6007C175.281 98.5979 175 98.3127 175.003 97.9638C175.006 97.615 175.291 97.3346 175.64 97.3374C175.989 97.3402 176.269 97.6254 176.266 97.9743C176.264 98.3231 175.978 98.6035 175.63 98.6007ZM179.636 98.6345C179.287 98.6317 179.007 98.3465 179.009 97.9976C179.012 97.6488 179.297 97.3684 179.646 97.3712C179.995 97.374 180.275 97.6592 180.273 98.008C180.27 98.3569 179.985 98.6373 179.636 98.6345ZM240.922 87C240.225 87.685 239.105 87.6756 238.42 86.9792C237.735 86.2822 237.744 85.1619 238.441 84.477C239.137 83.792 240.258 83.8014 240.943 84.4978C241.628 85.1943 241.619 86.3145 240.922 87Z" fill="#E8505B"/>
<g opacity="0.3">
<path d="M256.47 74.3895C241.631 65.3071 221.593 65.5529 206.981 74.9962C199.786 79.6468 193.874 86.2826 186.108 89.902C176.463 94.3977 165.224 93.655 154.759 91.732C144.293 89.809 133.895 86.7884 123.257 87.0225C112.618 87.256 100.964 91.638 95.6438 100.854L95.6303 102.474L256.222 103.812L256.47 74.3895ZM171.624 98.5669C171.275 98.5641 170.995 98.2789 170.997 97.9301C171 97.5812 171.285 97.3008 171.634 97.3036C171.983 97.3064 172.264 97.5916 172.261 97.9405C172.258 98.2893 171.973 98.5697 171.624 98.5669ZM175.63 98.6007C175.281 98.5979 175 98.3127 175.003 97.9638C175.006 97.615 175.291 97.3346 175.64 97.3374C175.989 97.3402 176.269 97.6254 176.266 97.9743C176.264 98.3231 175.978 98.6035 175.63 98.6007ZM179.636 98.6345C179.287 98.6317 179.007 98.3465 179.009 97.9976C179.012 97.6488 179.297 97.3684 179.646 97.3712C179.995 97.374 180.275 97.6592 180.273 98.008C180.27 98.3569 179.985 98.6373 179.636 98.6345ZM240.922 87C240.225 87.685 239.105 87.6756 238.42 86.9792C237.735 86.2822 237.744 85.1619 238.441 84.477C239.137 83.792 240.258 83.8014 240.943 84.4978C241.628 85.1943 241.619 86.3145 240.922 87Z" fill="black"/>
</g>
<path d="M171.634 97.3033C171.286 97.3005 171 97.5809 170.997 97.9298C170.995 98.2786 171.275 98.5638 171.624 98.5666C171.973 98.5694 172.258 98.289 172.261 97.9402C172.264 97.5914 171.983 97.3061 171.634 97.3033Z" fill="#263238"/>
<path d="M175.641 97.3372C175.292 97.3344 175.007 97.6149 175.004 97.9637C175.001 98.3125 175.281 98.5978 175.63 98.6006C175.979 98.6034 176.264 98.3229 176.267 97.9741C176.27 97.6253 175.99 97.34 175.641 97.3372Z" fill="#263238"/>
<path d="M179.646 97.3718C179.298 97.369 179.012 97.6494 179.01 97.9983C179.007 98.3471 179.287 98.6323 179.636 98.6351C179.985 98.6379 180.27 98.3575 180.273 98.0087C180.276 97.6599 179.995 97.3746 179.646 97.3718Z" fill="#263238"/>
<path d="M117.891 76.7613C122.574 74.6691 126.409 70.5165 131.486 69.7824C134.026 69.4148 136.644 69.9614 139.169 69.497C141.694 69.0325 144.29 66.9363 143.891 64.4004L95.9551 63.9129L95.9025 70.1308L95.9021 70.1577C100.326 77.3245 110.202 80.1973 117.891 76.7613Z" fill="#E8505B"/>
<g opacity="0.3">
<path d="M117.891 76.7613C122.574 74.6691 126.409 70.5165 131.486 69.7824C134.026 69.4148 136.644 69.9614 139.169 69.497C141.694 69.0325 144.29 66.9363 143.891 64.4004L95.9551 63.9129L95.9025 70.1308L95.9021 70.1577C100.326 77.3245 110.202 80.1973 117.891 76.7613Z" fill="white"/>
</g>
<path d="M162.162 72.6784C159.163 72.6533 156.712 75.0635 156.686 78.062C156.661 81.0606 159.071 83.5118 162.07 83.5369C165.069 83.562 167.52 81.1519 167.545 78.1533C167.571 75.1552 165.16 72.7035 162.162 72.6784Z" fill="#E8505B"/>
<g opacity="0.3">
<path d="M162.162 72.6784C159.163 72.6533 156.712 75.0635 156.686 78.062C156.661 81.0606 159.071 83.5118 162.07 83.5369C165.069 83.562 167.52 81.1519 167.545 78.1533C167.571 75.1552 165.16 72.7035 162.162 72.6784Z" fill="black"/>
</g>
<path d="M238.441 84.477C237.744 85.162 237.735 86.2823 238.42 86.9792C239.105 87.6762 240.225 87.6855 240.922 87.0001C241.619 86.3151 241.629 85.1948 240.943 84.4979C240.258 83.8014 239.138 83.7921 238.441 84.477Z" fill="#E8505B"/>
<path d="M77.5884 96.8372L51.2624 96.7157C48.0962 96.7017 45.5406 94.1303 45.5541 90.9729L45.8326 25.1567C45.8465 21.9974 48.4259 19.4478 51.5937 19.4623L77.9202 19.5838C81.086 19.5983 83.6415 22.1693 83.6286 25.3266L83.3496 91.1433C83.3357 94.3021 80.7562 96.8522 77.5884 96.8372Z" fill="#263238"/>
<path d="M77.8827 21.8544L72.7781 21.831C72.0936 21.828 71.5367 22.4039 71.5337 23.1172L71.5292 24.0403C71.5267 24.7537 70.9688 25.33 70.2843 25.327L60.3352 25.2812C59.6507 25.2782 59.0983 24.6969 59.1013 23.9835L59.1057 23.0604C59.1087 22.3471 58.5563 21.7657 57.8718 21.7627L56.0765 21.7543L51.609 21.7339C49.3902 21.7239 47.5834 23.5093 47.5739 25.7221L47.3015 89.9637C47.292 92.175 49.0819 93.9753 51.2992 93.9858L77.5728 94.1068C79.7911 94.1173 81.5979 92.3319 81.6074 90.1191L81.8799 25.877C81.8894 23.6652 80.1 21.8649 77.8827 21.8544Z" fill="white"/>
<path d="M77.5444 48.1629C77.5444 48.2346 71.8315 48.2924 64.7856 48.2924C57.7372 48.2924 52.0254 48.2341 52.0254 48.1629C52.0254 48.0912 57.7372 48.0334 64.7856 48.0334C71.831 48.0329 77.5444 48.0912 77.5444 48.1629Z" fill="#263238"/>
<path d="M77.5444 49.7357C77.5444 49.8074 71.8315 49.8652 64.7856 49.8652C57.7372 49.8652 52.0254 49.8069 52.0254 49.7357C52.0254 49.664 57.7372 49.6062 64.7856 49.6062C71.831 49.6057 77.5444 49.664 77.5444 49.7357Z" fill="#263238"/>
<path d="M68.9322 51.1416C68.9322 51.2133 66.6323 51.2711 63.7958 51.2711C60.9583 51.2711 58.6588 51.2128 58.6588 51.1416C58.6588 51.0703 60.9583 51.012 63.7958 51.012C66.6323 51.0115 68.9322 51.0698 68.9322 51.1416Z" fill="#263238"/>
<path d="M77.5439 54.603H50.5469V71.885H77.5439V54.603Z" fill="#E8505B"/>
<path d="M53.3811 59.0912C53.9784 59.0912 54.4626 58.6159 54.4626 58.0296C54.4626 57.4433 53.9784 56.9681 53.3811 56.9681C52.7838 56.9681 52.2996 57.4433 52.2996 58.0296C52.2996 58.6159 52.7838 59.0912 53.3811 59.0912Z" fill="#FAFAFA"/>
<path d="M76.0789 58.9225L75.1902 58.0686L74.3643 58.8971L74.3374 56.4222L76.0516 56.4043L76.0789 58.9225ZM75.1887 57.961L75.2166 57.9874L75.9992 58.7397L75.9748 56.4815L74.4156 56.498L74.44 58.7128L75.1887 57.961Z" fill="#FAFAFA"/>
<path d="M69.279 57.465C69.279 57.5367 66.314 57.5945 62.6571 57.5945C58.9991 57.5945 56.0346 57.5362 56.0346 57.465C56.0346 57.3932 58.9991 57.3354 62.6571 57.3354C66.314 57.3354 69.279 57.3937 69.279 57.465Z" fill="#FAFAFA"/>
<path d="M61.1405 58.9224C61.1405 58.9942 59.9973 59.0519 58.588 59.0519C57.1777 59.0519 56.035 58.9937 56.035 58.9224C56.035 58.8507 57.1777 58.7929 58.588 58.7929C59.9978 58.7929 61.1405 58.8507 61.1405 58.9224Z" fill="#FAFAFA"/>
<path d="M57.8716 21.763L56.0762 21.7545L51.6088 21.7341C49.39 21.7236 47.5832 23.5095 47.5737 25.7223L47.5219 37.9047C48.8714 38.1752 50.2209 38.4392 51.5719 38.6758C58.5237 39.8928 65.9815 40.3227 72.3529 37.2875C75.8829 35.6057 78.823 32.9824 81.8597 30.4912L81.8792 25.8767C81.8886 23.6654 80.0992 21.8651 77.882 21.8546L72.7774 21.8312C72.0929 21.8282 71.5355 22.4041 71.5325 23.1175L71.528 24.0405C71.5255 24.7539 70.9676 25.3303 70.2831 25.3268L60.334 25.281C59.6495 25.278 59.097 24.6966 59.1 23.9828L59.1045 23.0597C59.1085 22.3473 58.5555 21.766 57.8716 21.763ZM59.9768 29.599C59.9768 31.5876 58.3642 33.2001 56.3756 33.2001C54.3865 33.2001 52.7744 31.5876 52.7744 29.599C52.7744 27.6098 54.3865 25.9978 56.3756 25.9978C58.3647 25.9978 59.9768 27.6098 59.9768 29.599Z" fill="#E8505B"/>
<path d="M51.5725 38.6761C50.2215 38.4395 48.872 38.1755 47.5225 37.905L47.4961 44.103H81.8026L81.8603 30.4915C78.8236 32.9827 75.8835 35.606 72.3536 37.2878C65.9822 40.323 58.5243 39.8936 51.5725 38.6761ZM62.0128 41.9186C61.842 41.9186 61.7035 41.7801 61.7035 41.6093C61.7035 41.4384 61.842 41.2999 62.0128 41.2999C62.1837 41.2999 62.3222 41.4384 62.3222 41.6093C62.3222 41.7801 62.1837 41.9186 62.0128 41.9186ZM63.9751 41.9186C63.8042 41.9186 63.6657 41.7801 63.6657 41.6093C63.6657 41.4384 63.8042 41.2999 63.9751 41.2999C64.146 41.2999 64.2844 41.4384 64.2844 41.6093C64.2849 41.7801 64.1465 41.9186 63.9751 41.9186ZM65.9378 41.9186C65.7669 41.9186 65.6285 41.7801 65.6285 41.6093C65.6285 41.4384 65.7669 41.2999 65.9378 41.2999C66.1087 41.2999 66.2472 41.4384 66.2472 41.6093C66.2472 41.7801 66.1087 41.9186 65.9378 41.9186Z" fill="#E8505B"/>
<path d="M62.0135 41.299C61.8424 41.299 61.7038 41.4376 61.7038 41.6087C61.7038 41.7798 61.8424 41.9184 62.0135 41.9184C62.1846 41.9184 62.3232 41.7798 62.3232 41.6087C62.3232 41.4376 62.1846 41.299 62.0135 41.299Z" fill="#263238"/>
<path d="M63.9755 41.299C63.8045 41.299 63.6658 41.4376 63.6658 41.6087C63.6658 41.7798 63.8045 41.9184 63.9755 41.9184C64.1466 41.9184 64.2852 41.7798 64.2852 41.6087C64.2857 41.4376 64.1471 41.299 63.9755 41.299Z" fill="#263238"/>
<path d="M65.9386 41.299C65.7676 41.299 65.6289 41.4376 65.6289 41.6087C65.6289 41.7798 65.7676 41.9184 65.9386 41.9184C66.1097 41.9184 66.2483 41.7798 66.2483 41.6087C66.2483 41.4376 66.1097 41.299 65.9386 41.299Z" fill="#263238"/>
<path d="M56.3764 25.9973C54.3872 25.9973 52.7752 27.6098 52.7752 29.5985C52.7752 31.5871 54.3872 33.1996 56.3764 33.1996C58.365 33.1996 59.9775 31.5871 59.9775 29.5985C59.9775 27.6094 58.3655 25.9973 56.3764 25.9973Z" fill="#E8505B"/>
<g opacity="0.3">
<path d="M56.3764 25.9973C54.3872 25.9973 52.7752 27.6098 52.7752 29.5985C52.7752 31.5871 54.3872 33.1996 56.3764 33.1996C58.365 33.1996 59.9775 31.5871 59.9775 29.5985C59.9775 27.6094 58.3655 25.9973 56.3764 25.9973Z" fill="black"/>
</g>
<path d="M50.547 93.9095C50.7911 93.9568 51.0422 93.9847 51.2997 93.9857L77.0439 94.1043V80.5749H50.547V93.9095ZM75.5793 82.3767L75.6062 84.8949L74.7339 84.041L73.9234 84.8695L73.897 82.3946L75.5793 82.3767ZM53.3282 82.9401C53.9145 82.9401 54.3898 83.4154 54.3898 84.0017C54.3898 84.588 53.9145 85.0633 53.3282 85.0633C52.7419 85.0633 52.2666 84.588 52.2666 84.0017C52.2666 83.4154 52.7419 82.9401 53.3282 82.9401Z" fill="#455A64"/>
<path d="M74.733 83.9337L74.7604 83.9601L75.5285 84.7123L75.5041 82.4541L73.9738 82.4706L73.9977 84.6854L74.733 83.9337Z" fill="#455A64"/>
<path d="M53.3282 85.0636C53.9145 85.0636 54.3898 84.5883 54.3898 84.002C54.3898 83.4157 53.9145 82.9405 53.3282 82.9405C52.7419 82.9405 52.2666 83.4157 52.2666 84.002C52.2666 84.5883 52.7419 85.0636 53.3282 85.0636Z" fill="#FAFAFA"/>
<path d="M74.7338 84.0411L75.6061 84.8949L75.5792 82.3767L73.8964 82.3947L73.9228 84.8695L74.7338 84.0411ZM75.504 82.4539L75.5279 84.7121L74.7597 83.9599L74.7323 83.9335L73.9971 84.6852L73.9731 82.4704L75.504 82.4539Z" fill="#FAFAFA"/>
<g opacity="0.3">
<path d="M51.5725 38.6761C50.2215 38.4395 48.872 38.1755 47.5225 37.905L47.4961 44.103H81.8026L81.8603 30.4915C78.8236 32.9827 75.8835 35.606 72.3536 37.2878C65.9822 40.323 58.5243 39.8936 51.5725 38.6761ZM62.0128 41.9186C61.842 41.9186 61.7035 41.7801 61.7035 41.6093C61.7035 41.4384 61.842 41.2999 62.0128 41.2999C62.1837 41.2999 62.3222 41.4384 62.3222 41.6093C62.3222 41.7801 62.1837 41.9186 62.0128 41.9186ZM63.9751 41.9186C63.8042 41.9186 63.6657 41.7801 63.6657 41.6093C63.6657 41.4384 63.8042 41.2999 63.9751 41.2999C64.146 41.2999 64.2844 41.4384 64.2844 41.6093C64.2849 41.7801 64.1465 41.9186 63.9751 41.9186ZM65.9378 41.9186C65.7669 41.9186 65.6285 41.7801 65.6285 41.6093C65.6285 41.4384 65.7669 41.2999 65.9378 41.2999C66.1087 41.2999 66.2472 41.4384 66.2472 41.6093C66.2472 41.7801 66.1087 41.9186 65.9378 41.9186Z" fill="black"/>
</g>
<path d="M76.8219 73.6163C76.8219 73.688 70.9397 73.7458 63.6851 73.7458C56.428 73.7458 50.5468 73.6875 50.5468 73.6163C50.5468 73.545 56.428 73.4867 63.6851 73.4867C70.9397 73.4863 76.8219 73.5445 76.8219 73.6163Z" fill="#263238"/>
<path d="M76.8219 74.9441C76.8219 75.0158 70.9397 75.0736 63.6851 75.0736C56.428 75.0736 50.5468 75.0153 50.5468 74.9441C50.5468 74.8724 56.428 74.8146 63.6851 74.8146C70.9397 74.8146 76.8219 74.8724 76.8219 74.9441Z" fill="#263238"/>
<path d="M76.8218 76.461C76.8218 76.5327 70.9396 76.5905 63.685 76.5905C56.4279 76.5905 50.5466 76.5322 50.5466 76.461C50.5466 76.3897 56.4279 76.3314 63.685 76.3314C70.9396 76.3314 76.8218 76.3892 76.8218 76.461Z" fill="#263238"/>
<path d="M64.2388 77.7766C64.2388 77.8483 61.1732 77.9061 57.3927 77.9061C53.6107 77.9061 50.546 77.8478 50.546 77.7766C50.546 77.7049 53.6107 77.6471 57.3927 77.6471C61.1737 77.6466 64.2388 77.7049 64.2388 77.7766Z" fill="#263238"/>
<path d="M126.209 186.958H12.6141C8.6064 186.958 5.35743 183.709 5.35743 179.701V106.102C5.35743 103.969 7.08603 102.241 9.21863 102.241H130.108C131.962 102.241 133.465 103.744 133.465 105.598V179.701C133.466 183.709 130.217 186.958 126.209 186.958Z" fill="#263238"/>
<path d="M131.96 188.105H6.83518C3.06016 188.105 0 185.045 0 181.27V180.692H138.795V181.269C138.795 185.045 135.735 188.105 131.96 188.105Z" fill="#263238"/>
<path d="M129.669 105.606H8.7966V177.147H129.669V105.606Z" fill="#455A64"/>
<path d="M56.7832 180.692L58.5053 183.432H82.7406L84.3401 180.692H56.7832Z" fill="#455A64"/>
<path d="M124.114 110.368H12.827V177.118H124.114V110.368Z" fill="white"/>
<path d="M17.5775 113.663C17.5775 114.179 17.1595 114.597 16.6439 114.597C16.1283 114.597 15.7104 114.179 15.7104 113.663C15.7104 113.147 16.1283 112.729 16.6439 112.729C17.1595 112.729 17.5775 113.147 17.5775 113.663Z" fill="#263238"/>
<path d="M21.3877 113.663C21.3877 114.179 20.9698 114.597 20.4542 114.597C19.9386 114.597 19.5206 114.179 19.5206 113.663C19.5206 113.147 19.9386 112.729 20.4542 112.729C20.9698 112.729 21.3877 113.147 21.3877 113.663Z" fill="#263238"/>
<path d="M25.1986 113.663C25.1986 114.179 24.7806 114.597 24.265 114.597C23.7494 114.597 23.3315 114.179 23.3315 113.663C23.3315 113.147 23.7494 112.729 24.265 112.729C24.7806 112.729 25.1986 113.147 25.1986 113.663Z" fill="#263238"/>
<path d="M133.466 180.748H5.35767V181.156H133.466V180.748Z" fill="#455A64"/>
<path d="M95.1802 148.523C95.1802 148.595 83.3201 148.652 68.6927 148.652C54.0609 148.652 42.2029 148.594 42.2029 148.523C42.2029 148.451 54.0604 148.393 68.6927 148.393C83.3196 148.393 95.1802 148.451 95.1802 148.523Z" fill="#263238"/>
<path d="M82.2974 150.347C82.2974 150.419 75.9434 150.477 68.107 150.477C60.268 150.477 53.915 150.419 53.915 150.347C53.915 150.276 60.268 150.218 68.107 150.218C75.9434 150.218 82.2974 150.276 82.2974 150.347Z" fill="#263238"/>
<path d="M50.6349 156.526H20.9279V175.902H50.6349V156.526Z" fill="#E8505B"/>
<path d="M25.2366 160.368C25.2366 161.026 24.7036 161.559 24.0465 161.559C23.3889 161.559 22.8564 161.026 22.8564 160.368C22.8564 159.711 23.3894 159.178 24.0465 159.178C24.7036 159.178 25.2366 159.711 25.2366 160.368Z" fill="#FAFAFA"/>
<path d="M49.0235 161.37L48.0451 160.413L47.1365 161.342L47.1066 158.567L48.9931 158.547L49.0235 161.37ZM48.0441 160.292L48.075 160.322L48.9363 161.165L48.9094 158.634L47.1938 158.652L47.2202 161.135L48.0441 160.292Z" fill="#FAFAFA"/>
<path d="M41.5411 159.737C41.5411 159.809 38.2782 159.867 34.2546 159.867C30.2295 159.867 26.9671 159.808 26.9671 159.737C26.9671 159.666 30.229 159.608 34.2546 159.608C38.2782 159.607 41.5411 159.665 41.5411 159.737Z" fill="#FAFAFA"/>
<path d="M32.5852 161.37C32.5852 161.442 31.3274 161.499 29.7761 161.499C28.2244 161.499 26.9671 161.441 26.9671 161.37C26.9671 161.298 28.2244 161.24 29.7761 161.24C31.3274 161.24 32.5852 161.298 32.5852 161.37Z" fill="#FAFAFA"/>
<path d="M83.5451 156.526H53.8382V175.902H83.5451V156.526Z" fill="#455A64"/>
<path d="M58.1471 160.368C58.1471 161.026 57.6141 161.559 56.957 161.559C56.3 161.559 55.7669 161.026 55.7669 160.368C55.7669 159.711 56.3 159.178 56.957 159.178C57.6141 159.178 58.1471 159.711 58.1471 160.368Z" fill="#FAFAFA"/>
<path d="M81.934 161.37L80.9557 160.413L80.047 161.342L80.0171 158.567L81.9036 158.547L81.934 161.37ZM80.9547 160.292L80.9855 160.322L81.8469 161.165L81.82 158.634L80.1043 158.652L80.1307 161.135L80.9547 160.292Z" fill="#FAFAFA"/>
<path d="M74.4515 159.737C74.4515 159.809 71.1886 159.867 67.165 159.867C63.1399 159.867 59.8775 159.808 59.8775 159.737C59.8775 159.666 63.1394 159.608 67.165 159.608C71.1886 159.607 74.4515 159.665 74.4515 159.737Z" fill="#FAFAFA"/>
<path d="M65.4961 161.37C65.4961 161.442 64.2383 161.499 62.687 161.499C61.1353 161.499 59.8779 161.441 59.8779 161.37C59.8779 161.298 61.1353 161.24 62.687 161.24C64.2383 161.24 65.4961 161.298 65.4961 161.37Z" fill="#FAFAFA"/>
<path d="M116.394 156.526H86.6873V175.902H116.394V156.526Z" fill="#E8505B"/>
<path d="M90.9959 160.368C90.9959 161.026 90.4629 161.559 89.8058 161.559C89.1488 161.559 88.6157 161.026 88.6157 160.368C88.6157 159.711 89.1488 159.178 89.8058 159.178C90.4629 159.178 90.9959 159.711 90.9959 160.368Z" fill="#FAFAFA"/>
<path d="M114.783 161.37L113.805 160.413L112.896 161.342L112.866 158.567L114.752 158.547L114.783 161.37ZM113.804 160.292L113.834 160.322L114.696 161.165L114.668 158.634L112.953 158.652L112.979 161.135L113.804 160.292Z" fill="#FAFAFA"/>
<path d="M107.3 159.737C107.3 159.809 104.037 159.867 100.014 159.867C95.9887 159.867 92.7268 159.808 92.7268 159.737C92.7268 159.666 95.9887 159.608 100.014 159.608C104.037 159.607 107.3 159.665 107.3 159.737Z" fill="#FAFAFA"/>
<path d="M98.3449 161.37C98.3449 161.442 97.0871 161.499 95.5358 161.499C93.9841 161.499 92.7268 161.441 92.7268 161.37C92.7268 161.298 93.9841 161.24 95.5358 161.24C97.0871 161.24 98.3449 161.298 98.3449 161.37Z" fill="#FAFAFA"/>
<path d="M39.1325 119.535C37.0891 119.929 34.963 119.504 32.9061 119.819C28.7963 120.448 25.7152 123.84 21.9337 125.568C19.0808 126.872 15.8453 127.097 12.8274 126.401V137.199C16.9641 135.08 21.7708 133.989 26.3529 133.85C34.9749 133.588 43.4251 135.966 51.9222 137.453C60.4192 138.941 69.5349 139.466 77.3226 135.757C83.5929 132.77 88.3403 127.35 94.1418 123.531C102.854 117.796 114.005 116.124 124.114 118.576V116.746H42.7925C42.2853 118.156 40.6972 119.234 39.1325 119.535ZM57.7934 121.957C60.2244 121.957 62.1951 123.928 62.1951 126.359C62.1951 128.79 60.2244 130.761 57.7934 130.761C55.3624 130.761 53.3917 128.79 53.3917 126.359C53.3917 123.928 55.3624 121.957 57.7934 121.957Z" fill="#E8505B"/>
<path d="M94.1415 123.531C88.34 127.349 83.5931 132.769 77.3223 135.756C69.5347 139.466 60.4189 138.941 51.9219 137.453C43.4249 135.965 34.9752 133.587 26.3526 133.849C21.7706 133.988 16.9634 135.08 12.8272 137.198V144.085H124.114V118.575C114.005 116.123 102.854 117.796 94.1415 123.531ZM65.3113 140.872C65.0697 140.872 64.8734 140.676 64.8734 140.434C64.8734 140.192 65.0697 139.996 65.3113 139.996C65.5534 139.996 65.7492 140.192 65.7492 140.434C65.7492 140.676 65.5534 140.872 65.3113 140.872ZM68.0885 140.872C67.8464 140.872 67.6507 140.676 67.6507 140.434C67.6507 140.192 67.8469 139.996 68.0885 139.996C68.3301 139.996 68.5264 140.192 68.5264 140.434C68.5264 140.676 68.3306 140.872 68.0885 140.872ZM70.8657 140.872C70.6241 140.872 70.4279 140.676 70.4279 140.434C70.4279 140.192 70.6241 139.996 70.8657 139.996C71.1079 139.996 71.3036 140.192 71.3036 140.434C71.3036 140.676 71.1079 140.872 70.8657 140.872ZM119.708 131.001C120.269 130.441 121.177 130.441 121.737 131.001C122.297 131.561 122.297 132.47 121.737 133.03C121.177 133.59 120.268 133.59 119.708 133.03C119.148 132.469 119.148 131.561 119.708 131.001Z" fill="#E8505B"/>
<path d="M65.312 139.997C65.0701 139.997 64.8736 140.193 64.8736 140.435C64.8736 140.677 65.0701 140.873 65.312 140.873C65.5543 140.873 65.7503 140.677 65.7503 140.435C65.7503 140.193 65.5543 139.997 65.312 139.997Z" fill="#263238"/>
<path d="M68.0892 140.873C68.3313 140.873 68.5275 140.677 68.5275 140.435C68.5275 140.193 68.3313 139.997 68.0892 139.997C67.8471 139.997 67.6508 140.193 67.6508 140.435C67.6508 140.677 67.8471 140.873 68.0892 140.873Z" fill="#263238"/>
<path d="M70.8664 140.873C71.1085 140.873 71.3048 140.677 71.3048 140.435C71.3048 140.193 71.1085 139.997 70.8664 139.997C70.6243 139.997 70.428 140.193 70.428 140.435C70.428 140.677 70.6243 140.873 70.8664 140.873Z" fill="#263238"/>
<path d="M21.9337 125.568C25.7152 123.84 28.7963 120.448 32.9061 119.819C34.963 119.503 37.0891 119.929 39.1325 119.535C40.6972 119.234 42.2848 118.156 42.7925 116.746H12.8274V126.402C15.8453 127.097 19.0808 126.872 21.9337 125.568Z" fill="#E8505B"/>
<g opacity="0.3">
<path d="M21.9335 125.568C25.715 123.84 28.7961 120.448 32.9058 119.819C34.9627 119.503 37.0888 119.929 39.1323 119.535C40.697 119.234 42.2846 118.156 42.7922 116.746H12.8272V126.402C15.845 127.097 19.0805 126.872 21.9335 125.568Z" fill="white"/>
</g>
<path d="M60.904 129.471C62.623 127.752 62.623 124.965 60.904 123.246C59.1851 121.527 56.3981 121.527 54.6791 123.246C52.9602 124.965 52.9602 127.752 54.6791 129.471C56.3981 131.19 59.185 131.19 60.904 129.471Z" fill="#E8505B"/>
<g opacity="0.3">
<path d="M60.904 129.471C62.623 127.752 62.623 124.965 60.904 123.246C59.1851 121.527 56.3981 121.527 54.6791 123.246C52.9602 124.965 52.9602 127.752 54.6791 129.471C56.3981 131.19 59.185 131.19 60.904 129.471Z" fill="black"/>
</g>
<path d="M120.723 133.45C121.516 133.45 122.158 132.808 122.158 132.015C122.158 131.223 121.516 130.581 120.723 130.581C119.931 130.581 119.289 131.223 119.289 132.015C119.289 132.808 119.931 133.45 120.723 133.45Z" fill="#E8505B"/>
<g opacity="0.3">
<path d="M94.1415 123.531C88.34 127.349 83.5931 132.769 77.3223 135.756C69.5347 139.466 60.4189 138.941 51.9219 137.453C43.4249 135.965 34.9752 133.587 26.3526 133.849C21.7706 133.988 16.9634 135.08 12.8272 137.198V144.085H124.114V118.575C114.005 116.123 102.854 117.796 94.1415 123.531ZM65.3113 140.872C65.0697 140.872 64.8734 140.676 64.8734 140.434C64.8734 140.192 65.0697 139.996 65.3113 139.996C65.5534 139.996 65.7492 140.192 65.7492 140.434C65.7492 140.676 65.5534 140.872 65.3113 140.872ZM68.0885 140.872C67.8464 140.872 67.6507 140.676 67.6507 140.434C67.6507 140.192 67.8469 139.996 68.0885 139.996C68.3301 139.996 68.5264 140.192 68.5264 140.434C68.5264 140.676 68.3306 140.872 68.0885 140.872ZM70.8657 140.872C70.6241 140.872 70.4279 140.676 70.4279 140.434C70.4279 140.192 70.6241 139.996 70.8657 139.996C71.1079 139.996 71.3036 140.192 71.3036 140.434C71.3036 140.676 71.1079 140.872 70.8657 140.872ZM119.708 131.001C120.269 130.441 121.177 130.441 121.737 131.001C122.297 131.561 122.297 132.47 121.737 133.03C121.177 133.59 120.268 133.59 119.708 133.03C119.148 132.469 119.148 131.561 119.708 131.001Z" fill="black"/>
</g>
<path d="M119.785 168.065C119.776 168.054 119.933 167.911 120.194 167.687C120.455 167.463 120.821 167.159 121.23 166.827L121.229 166.906C121.222 166.901 121.215 166.895 121.208 166.889C120.806 166.539 120.445 166.219 120.187 165.982C119.93 165.746 119.776 165.595 119.784 165.584C119.794 165.573 119.965 165.705 120.235 165.927C120.505 166.149 120.873 166.461 121.276 166.81C121.283 166.816 121.29 166.822 121.296 166.828L121.343 166.868L121.295 166.907C120.886 167.239 120.513 167.534 120.24 167.743C119.967 167.953 119.794 168.077 119.785 168.065Z" fill="#263238"/>
<path d="M17.6678 165.584C17.6768 165.595 17.5198 165.739 17.2588 165.963C16.9978 166.187 16.6316 166.491 16.2226 166.823L16.2241 166.744C16.2306 166.749 16.2376 166.755 16.2446 166.761C16.6471 167.11 17.0077 167.431 17.2653 167.667C17.5228 167.903 17.6773 168.054 17.6683 168.065C17.6588 168.076 17.4875 167.944 17.2175 167.723C16.9475 167.501 16.5793 167.189 16.1768 166.839C16.1698 166.833 16.1629 166.827 16.1564 166.822L16.1096 166.782L16.1574 166.743C16.5669 166.411 16.9395 166.116 17.213 165.907C17.4855 165.698 17.6588 165.573 17.6678 165.584Z" fill="#263238"/>
</svg>
