<svg width="9" height="20" viewBox="0 0 9 20" fill="none" xmlns="http://www.w3.org/2000/svg">
<path d="M8.65584 18.7957C8.87621 18.5248 9 18.1573 9 17.7742C9 17.3911 8.87621 17.0236 8.65584 16.7527L2.83731 9.60065L8.65584 2.44861C8.86996 2.17611 8.98844 1.81114 8.98576 1.4323C8.98308 1.05346 8.85946 0.691074 8.64152 0.423187C8.42358 0.155298 8.12876 0.0033474 7.82056 5.53131e-05C7.51236 -0.00323677 7.21544 0.142397 6.99374 0.405588L0.344159 8.57914C0.123794 8.85009 0 9.21753 0 9.60065C0 9.98378 0.123794 10.3512 0.344159 10.6222L6.99374 18.7957C7.21417 19.0666 7.5131 19.2188 7.82479 19.2188C8.13648 19.2188 8.43541 19.0666 8.65584 18.7957Z" fill="black"/>
</svg>
