<svg width="9" height="15" viewBox="0 0 9 15" fill="none" xmlns="http://www.w3.org/2000/svg">
<path d="M0.344159 14.6698C0.123794 14.4584 0 14.1716 0 13.8725C0 13.5735 0.123794 13.2867 0.344159 13.0753L6.16269 7.49319L0.344159 1.91111C0.130039 1.69843 0.0115595 1.41357 0.0142374 1.11789C0.0169153 0.822216 0.140537 0.539376 0.358478 0.330293C0.576417 0.12121 0.871238 0.00261307 1.17944 4.3869e-05C1.48764 -0.00252628 1.78456 0.111139 2.00626 0.316558L8.65584 6.69591C8.87621 6.90739 9 7.19417 9 7.49319C9 7.79222 8.87621 8.079 8.65584 8.29047L2.00626 14.6698C1.78583 14.8812 1.4869 15 1.17521 15C0.863519 15 0.56459 14.8812 0.344159 14.6698Z" fill="black"/>
</svg>
